<?xml version="1.0" encoding="UTF-8" standalone="no"?>
<!DOCTYPE svg PUBLIC "-//W3C//DTD SVG 1.1//EN" "http://www.w3.org/Graphics/SVG/1.1/DTD/svg11.dtd">
<svg xmlns="http://www.w3.org/2000/svg" version="1.1" viewBox="0.00 0.00 678.00 720.00">
<path fill="#fff" d="
  M 678.00 216.55
  L 678.00 247.90
  Q 676.77 250.97 672.50 250.99
  Q 666.71 251.01 661.20 251.00
  A 2.08 2.08 0.0 0 0 659.12 253.21
  Q 659.32 256.31 657.72 258.88
  Q 650.83 269.98 637.71 271.77
  Q 633.23 272.38 628.99 272.79
  C 626.89 273.00 624.69 273.20 622.61 272.70
  Q 619.77 272.02 617.05 271.91
  Q 616.48 271.89 616.03 271.52
  Q 614.62 270.38 613.70 271.95
  C 607.62 282.40 595.73 282.61 585.13 282.09
  Q 581.99 281.94 579.49 281.13
  Q 576.74 280.23 573.89 279.41
  C 572.07 278.88 569.76 279.45 568.47 278.24
  Q 567.95 277.75 568.19 278.42
  Q 568.97 280.59 570.47 281.99
  Q 570.89 282.39 570.97 282.96
  C 571.27 285.04 571.88 286.96 571.96 289.08
  C 572.12 293.34 573.04 297.66 572.78 301.83
  Q 572.58 304.99 572.13 308.09
  C 571.85 309.96 571.89 311.83 573.01 313.49
  Q 575.50 317.19 575.86 319.48
  C 576.57 323.95 577.81 328.18 578.15 332.85
  Q 578.51 337.77 578.88 342.42
  Q 579.46 349.74 578.66 357.45
  C 578.01 363.63 575.82 370.03 573.93 376.22
  Q 571.51 384.16 569.96 386.23
  Q 567.05 390.13 565.32 393.62
  Q 564.73 394.82 565.50 395.95
  Q 565.84 396.46 565.89 397.06
  C 566.11 399.45 566.83 401.53 566.99 404.03
  Q 568.07 420.90 563.51 436.69
  C 563.10 438.10 563.24 439.57 562.84 440.91
  Q 561.49 445.55 559.69 450.49
  C 559.34 451.45 558.74 452.05 558.38 453.04
  Q 554.45 463.63 551.74 467.69
  Q 548.35 472.79 542.48 478.14
  Q 536.85 483.27 531.03 487.64
  Q 528.59 489.46 527.80 492.23
  Q 526.79 495.75 526.09 499.33
  Q 525.14 504.11 522.27 508.95
  Q 520.83 511.38 519.56 514.95
  C 518.17 518.84 515.74 522.40 513.79 526.06
  Q 509.26 534.51 503.26 541.69
  Q 501.26 544.10 498.30 546.72
  C 495.51 549.19 492.94 552.11 489.85 554.18
  Q 487.97 555.45 485.93 556.67
  Q 485.24 557.08 484.46 557.05
  Q 484.10 557.04 484.02 557.39
  Q 483.99 557.55 484.07 557.70
  Q 484.18 557.88 484.39 557.94
  Q 484.72 558.03 485.05 558.02
  Q 485.53 558.00 485.82 558.39
  Q 486.37 559.15 487.37 559.05
  Q 487.92 559.00 488.42 559.23
  Q 500.27 564.62 512.18 569.83
  Q 516.81 571.86 520.59 574.09
  C 524.27 576.26 528.11 578.26 531.49 580.87
  Q 536.98 585.10 542.66 590.78
  Q 546.86 594.98 549.25 600.18
  Q 552.14 606.47 553.80 613.07
  Q 555.58 620.20 554.64 626.67
  C 553.06 637.49 548.91 646.67 540.60 653.91
  Q 537.03 657.02 533.11 660.33
  Q 527.42 665.11 518.02 668.04
  Q 511.09 670.20 505.97 670.30
  C 503.13 670.35 500.42 671.10 497.49 670.96
  Q 488.04 670.50 479.10 667.85
  Q 465.76 663.91 452.33 660.00
  C 450.53 659.48 448.90 658.57 447.11 658.12
  Q 435.24 655.16 425.56 653.45
  Q 421.66 652.77 416.53 653.74
  Q 416.02 653.83 415.51 653.74
  Q 414.82 653.62 414.04 653.66
  Q 409.00 653.96 403.85 654.34
  Q 400.44 654.59 394.06 656.32
  C 392.89 656.63 391.92 657.41 390.74 657.84
  C 384.90 659.98 379.39 661.65 375.89 667.29
  Q 371.08 675.05 372.04 684.30
  C 372.36 687.38 373.98 689.97 375.17 692.78
  Q 377.07 697.28 381.08 700.00
  Q 386.65 703.80 390.74 705.68
  C 393.40 706.90 398.40 705.05 401.40 704.22
  Q 403.98 703.52 405.84 701.74
  Q 408.07 699.61 408.85 697.04
  Q 409.53 694.78 407.79 692.59
  Q 404.67 688.69 400.36 691.28
  C 398.33 692.50 396.08 691.03 395.35 689.07
  Q 394.60 687.04 394.88 684.72
  Q 395.77 677.14 400.42 671.97
  Q 402.64 669.50 406.15 668.90
  Q 421.62 666.26 427.05 680.26
  Q 429.05 685.41 427.81 691.53
  Q 426.75 696.75 422.52 701.98
  Q 418.47 706.98 413.89 710.41
  Q 411.51 712.19 407.37 713.02
  Q 401.90 714.11 397.06 714.23
  Q 392.51 714.35 387.42 712.20
  C 379.70 708.95 371.57 702.19 368.27 694.08
  C 366.98 690.92 365.10 688.29 364.85 684.80
  C 364.43 679.19 362.02 674.66 363.43 668.73
  Q 363.48 668.49 363.41 668.23
  Q 363.26 667.74 363.35 667.25
  Q 363.96 663.98 364.68 660.78
  C 365.27 658.12 366.90 655.95 368.23 653.56
  Q 368.98 652.21 369.60 650.74
  Q 370.41 648.83 371.87 647.53
  Q 372.40 647.05 371.69 647.00
  L 370.84 646.94
  A 0.67 0.62 22.9 0 0 370.34 647.12
  C 369.21 648.25 368.25 649.34 366.84 650.18
  Q 361.07 653.61 354.95 656.42
  C 353.72 656.99 352.82 657.85 351.67 658.52
  Q 349.57 659.73 346.93 660.90
  Q 344.56 661.94 341.91 662.71
  C 336.07 664.41 329.93 666.83 323.94 667.23
  C 319.90 667.50 316.39 668.21 312.17 667.80
  Q 305.14 667.11 300.03 665.69
  Q 291.92 663.43 287.04 659.93
  Q 283.43 657.34 279.06 653.04
  C 278.00 652.00 275.72 650.43 274.23 650.27
  C 270.97 649.93 267.79 648.90 264.50 648.09
  Q 254.73 645.70 246.57 639.87
  C 243.21 637.47 239.95 635.29 237.94 631.53
  Q 237.29 630.31 235.96 630.65
  C 233.93 631.17 231.93 631.17 229.85 631.80
  Q 226.10 632.92 222.11 633.19
  C 219.52 633.37 216.62 633.96 213.91 634.29
  Q 210.03 634.77 198.04 637.52
  Q 195.95 638.00 193.92 638.24
  C 191.67 638.51 189.88 639.67 187.60 640.05
  Q 183.87 640.67 182.15 641.31
  Q 175.77 643.72 170.00 645.54
  Q 166.58 646.62 163.41 646.94
  Q 159.92 647.29 156.86 648.23
  Q 150.48 650.20 147.12 650.68
  Q 136.32 652.22 125.76 652.80
  Q 119.85 653.13 114.67 653.08
  Q 109.45 653.03 103.77 650.86
  C 95.77 647.80 90.09 645.25 83.99 640.72
  Q 82.19 639.39 80.86 637.65
  Q 79.48 635.86 77.61 634.22
  Q 77.15 633.82 76.90 634.37
  Q 76.81 634.56 76.59 634.58
  Q 76.06 634.63 76.46 634.28
  Q 76.91 633.88 76.98 633.34
  A 1.14 1.13 -63.4 0 0 76.69 632.44
  C 68.56 623.71 65.94 610.89 67.20 599.36
  C 67.59 595.77 69.20 592.62 70.12 589.20
  Q 71.31 584.76 73.86 580.86
  Q 77.87 574.72 82.70 568.68
  C 84.69 566.19 88.95 562.94 92.29 564.59
  Q 94.55 565.72 94.60 568.55
  A 2.62 2.61 -12.4 0 1 93.03 570.99
  C 91.18 571.80 89.85 572.67 88.48 574.19
  C 82.95 580.33 78.33 586.00 76.90 594.43
  Q 75.53 602.47 76.07 609.65
  Q 76.55 616.12 80.20 621.14
  C 87.02 630.54 96.94 641.88 108.99 643.01
  C 111.50 643.24 113.88 643.94 116.43 644.10
  C 130.87 645.02 144.63 641.80 158.61 638.19
  Q 164.54 636.66 170.93 635.21
  Q 177.28 633.77 183.26 632.30
  C 189.04 630.88 194.85 630.27 200.56 628.78
  C 203.88 627.91 207.35 627.57 210.79 626.75
  C 218.25 624.97 226.11 624.11 233.52 622.40
  Q 237.80 621.40 243.50 620.06
  Q 250.65 618.37 262.97 617.78
  C 264.45 617.71 265.60 617.00 266.92 617.01
  Q 287.13 617.05 311.27 616.99
  C 316.06 616.98 320.95 616.18 325.25 616.15
  Q 329.48 616.13 333.54 616.21
  C 334.75 616.24 335.64 616.94 336.81 616.92
  Q 345.18 616.76 352.97 617.68
  Q 354.20 617.82 355.42 617.57
  C 356.61 617.32 357.64 618.00 358.87 618.00
  C 363.48 617.97 367.86 617.88 372.59 618.60
  Q 375.35 619.02 378.35 618.95
  C 381.63 618.88 384.61 619.98 387.88 620.01
  Q 388.45 620.02 388.92 620.35
  Q 389.50 620.77 390.18 620.54
  Q 390.81 620.32 391.47 620.44
  Q 393.93 620.90 396.33 621.53
  C 398.07 621.98 399.98 621.84 401.55 622.72
  Q 401.99 622.97 402.50 622.94
  Q 405.04 622.81 407.27 623.26
  Q 409.78 623.75 412.51 624.40
  Q 414.94 624.97 417.52 625.01
  Q 421.30 625.06 425.08 626.65
  Q 430.58 628.96 436.96 629.76
  Q 440.28 630.17 443.44 631.20
  Q 445.65 631.92 448.03 632.22
  Q 450.20 632.49 452.39 633.19
  C 455.60 634.21 458.77 634.79 461.93 636.13
  Q 463.58 636.83 465.08 637.30
  Q 469.41 638.68 485.65 645.87
  C 490.29 647.92 494.41 651.10 498.59 654.09
  Q 501.36 656.06 502.10 661.35
  Q 502.17 661.84 502.66 661.88
  Q 507.66 662.30 510.99 661.42
  C 514.28 660.56 517.78 659.78 520.67 657.76
  Q 523.36 655.88 526.23 654.14
  C 528.77 652.61 530.86 650.57 533.22 648.73
  Q 534.58 647.66 535.70 646.21
  Q 543.17 636.54 544.54 627.57
  Q 545.31 622.55 544.98 615.33
  C 544.82 611.90 543.81 609.32 542.96 606.17
  Q 542.53 604.56 541.60 602.89
  C 538.84 597.95 534.72 592.12 529.85 589.07
  C 525.75 586.50 522.11 583.67 517.78 581.25
  Q 513.42 578.82 509.28 576.84
  Q 496.74 570.83 481.07 564.93
  C 479.31 564.27 477.53 563.98 475.76 563.32
  Q 471.83 561.87 467.79 560.96
  Q 464.90 560.31 461.12 557.90
  Q 459.44 556.83 455.00 556.19
  Q 451.95 555.74 449.14 555.13
  C 445.86 554.41 442.53 554.14 439.27 553.41
  Q 435.72 552.61 432.48 552.15
  C 428.34 551.55 424.25 550.37 420.05 550.03
  C 416.99 549.78 414.11 548.67 411.12 548.27
  Q 404.27 547.35 388.39 545.88
  Q 383.69 545.44 379.19 545.19
  Q 377.08 545.08 374.83 545.63
  C 372.95 546.09 371.19 545.03 369.22 545.02
  Q 357.11 544.95 344.55 545.04
  Q 340.76 545.07 337.38 543.75
  Q 336.26 543.31 336.07 542.13
  Q 335.75 540.26 336.15 538.78
  Q 336.63 537.00 338.48 537.00
  L 364.99 537.00
  Q 365.53 537.00 365.94 536.64
  C 368.01 534.84 368.46 532.45 370.14 530.46
  Q 371.56 528.76 372.16 526.43
  Q 374.58 517.00 369.84 508.56
  C 367.40 504.22 363.72 502.28 359.52 500.26
  Q 356.97 499.04 353.61 498.95
  Q 349.43 498.84 347.38 499.52
  Q 342.16 501.24 339.67 503.26
  Q 336.71 505.66 333.79 508.09
  C 331.88 509.66 330.79 511.71 329.15 513.48
  Q 323.39 519.68 315.60 523.72
  Q 313.87 524.61 311.84 525.12
  C 308.80 525.87 306.07 527.01 303.02 527.09
  Q 301.47 527.13 299.89 527.56
  C 296.42 528.52 292.75 527.26 289.49 528.65
  Q 287.88 529.34 285.93 528.93
  C 284.22 528.57 284.04 526.88 283.14 525.68
  C 281.03 522.87 279.49 519.77 277.36 516.94
  C 273.47 511.78 269.32 507.56 263.46 504.87
  Q 261.11 503.79 258.87 502.56
  Q 256.55 501.28 253.92 500.37
  Q 253.38 500.19 253.19 500.72
  Q 252.79 501.80 252.13 502.74
  Q 247.19 509.86 245.51 519.36
  Q 244.96 522.50 244.40 525.63
  C 243.96 528.06 243.93 530.31 243.97 532.75
  C 244.02 535.49 244.87 538.18 245.07 540.83
  A 2.36 2.36 0.0 0 0 247.70 543.00
  Q 254.63 542.17 262.10 541.85
  Q 262.73 541.82 262.52 541.23
  Q 260.64 536.06 259.89 530.74
  Q 259.80 530.10 259.16 530.03
  C 258.31 529.93 257.41 530.10 256.58 529.95
  Q 253.19 529.33 250.79 527.41
  Q 249.82 526.63 249.22 525.54
  Q 247.63 522.63 248.85 521.45
  Q 249.83 520.51 250.80 521.47
  Q 253.65 524.28 257.15 525.53
  Q 258.55 526.04 257.84 524.73
  C 256.88 522.97 257.10 521.27 256.23 519.51
  Q 254.35 515.68 252.69 511.58
  Q 251.86 509.54 253.34 507.90
  L 253.76 507.43
  Q 254.93 506.13 256.00 507.52
  Q 257.64 509.66 258.48 512.71
  C 259.49 516.38 261.40 519.77 262.25 523.52
  A 0.71 0.71 0.0 0 0 263.02 524.07
  Q 263.49 524.02 263.74 523.62
  Q 265.00 521.54 265.00 519.30
  C 264.99 517.70 265.67 516.39 266.40 515.00
  Q 267.09 513.70 268.65 514.22
  A 1.60 1.60 0.0 0 1 269.70 515.36
  Q 271.22 521.58 267.48 526.95
  Q 266.39 528.51 264.67 529.07
  Q 264.11 529.25 264.33 529.80
  Q 266.93 536.16 267.86 541.70
  Q 268.37 544.79 267.62 547.85
  A 1.02 1.01 -1.1 0 1 266.91 548.58
  Q 264.26 549.32 261.32 549.27
  C 257.78 549.21 254.48 550.03 250.90 550.09
  Q 248.41 550.13 245.21 550.60
  Q 235.40 552.01 226.01 553.52
  C 221.72 554.20 218.52 555.29 213.26 556.12
  Q 209.48 556.72 205.48 558.66
  Q 204.99 558.90 204.46 558.73
  Q 198.90 556.97 200.08 551.90
  Q 200.19 551.42 200.61 551.17
  C 204.13 549.11 208.13 548.75 212.18 549.01
  A 0.43 0.43 0.0 0 0 212.54 548.31
  Q 206.91 541.59 202.40 533.78
  Q 201.23 531.76 200.94 529.66
  Q 200.27 524.94 198.89 519.51
  C 197.04 512.19 192.49 506.67 185.35 504.15
  Q 176.31 500.96 166.03 493.72
  Q 162.24 491.06 160.13 487.33
  Q 156.27 480.50 156.01 473.40
  C 155.89 469.87 155.83 466.18 156.38 462.67
  Q 157.46 455.82 157.96 448.77
  C 158.30 443.88 157.74 438.51 154.11 435.23
  Q 152.62 433.89 151.31 432.19
  Q 148.97 429.15 145.27 426.68
  Q 139.65 422.94 134.11 418.42
  C 129.28 414.48 125.02 409.54 123.17 404.27
  Q 122.89 403.47 122.89 402.63
  Q 122.88 398.68 122.22 394.20
  C 121.82 391.47 123.19 388.84 123.85 386.20
  C 124.61 383.16 126.24 380.41 127.49 377.56
  Q 128.54 375.17 129.99 373.04
  Q 134.76 366.00 136.47 359.14
  Q 137.25 356.00 135.58 351.76
  Q 132.48 343.91 129.64 336.32
  C 127.85 331.52 126.43 323.63 129.54 319.04
  Q 131.70 315.84 133.16 312.12
  Q 134.25 309.33 136.68 306.61
  Q 146.25 295.94 159.08 292.24
  C 164.33 290.72 168.32 279.83 169.98 274.17
  Q 171.46 269.14 174.00 263.53
  Q 175.66 259.88 177.90 257.09
  C 181.66 252.44 185.07 246.97 190.43 243.96
  C 194.06 241.92 197.14 239.71 201.21 238.36
  Q 209.08 235.73 215.75 234.58
  Q 218.78 234.07 222.75 234.61
  C 231.63 235.82 237.07 244.43 245.99 244.70
  C 252.62 244.90 258.04 247.68 263.34 252.14
  C 267.61 255.73 270.67 261.65 274.37 266.32
  Q 275.73 268.02 279.33 270.34
  C 283.08 272.75 287.08 272.08 291.19 271.27
  C 293.46 270.83 295.86 271.81 297.62 273.22
  Q 305.22 279.29 309.07 286.14
  Q 310.64 288.95 313.44 291.64
  Q 317.34 295.41 320.76 297.59
  Q 329.14 302.93 338.01 300.41
  Q 343.04 298.97 346.97 294.35
  Q 351.38 289.15 355.69 280.55
  C 357.06 277.82 359.25 276.08 362.16 275.00
  C 364.22 274.24 365.91 272.16 368.11 272.09
  C 374.32 271.90 381.14 270.92 386.20 267.82
  C 389.07 266.06 390.97 262.79 392.26 259.74
  C 393.55 256.69 395.05 252.68 397.57 250.43
  C 398.93 249.22 399.74 247.50 401.24 246.32
  C 404.00 244.14 406.37 242.02 409.85 240.80
  Q 417.85 237.98 423.48 237.15
  Q 429.37 236.28 435.07 235.63
  Q 438.68 235.23 441.73 235.56
  C 444.64 235.87 447.60 235.51 450.45 236.22
  Q 454.28 237.16 458.06 239.49
  Q 462.17 242.02 466.25 244.65
  C 470.86 247.62 475.53 251.09 478.77 255.47
  Q 480.62 257.99 481.61 261.63
  Q 483.64 269.13 484.67 275.01
  Q 485.78 281.38 484.60 289.28
  C 483.31 297.90 491.77 302.92 498.65 304.50
  C 504.06 305.74 510.23 308.30 514.06 311.21
  C 517.97 314.20 519.44 321.19 520.19 325.98
  Q 520.67 329.05 519.94 331.71
  C 519.19 334.48 518.90 337.09 517.77 339.81
  Q 515.86 344.40 515.14 348.59
  C 514.47 352.50 519.28 358.86 521.59 362.24
  C 525.20 367.49 526.92 373.36 528.62 379.37
  C 530.09 384.59 528.45 390.68 526.85 395.85
  Q 525.84 399.12 523.42 401.85
  Q 516.20 409.95 507.58 417.70
  Q 504.57 420.41 503.08 423.11
  Q 501.14 426.63 500.30 430.72
  C 499.80 433.12 500.06 435.70 500.67 438.03
  C 503.14 447.51 502.72 458.08 498.48 466.87
  C 497.52 468.86 497.02 471.07 495.81 472.91
  Q 493.37 476.59 490.53 479.37
  Q 487.22 482.61 482.69 485.46
  Q 478.48 488.11 470.61 490.12
  C 468.74 490.60 467.11 491.47 465.39 492.33
  C 463.22 493.41 461.81 495.04 459.88 496.40
  Q 458.67 497.26 457.83 498.20
  Q 451.44 505.40 450.23 513.15
  C 449.26 519.46 446.69 525.55 443.77 531.00
  Q 441.45 535.36 437.35 538.38
  Q 434.94 540.14 433.82 542.50
  Q 433.65 542.86 433.25 542.92
  Q 431.79 543.14 430.96 544.71
  Q 430.66 545.27 431.28 545.11
  Q 433.17 544.63 434.79 545.36
  Q 435.99 545.90 437.39 546.08
  C 443.59 546.84 449.73 547.78 455.84 549.16
  Q 459.20 549.91 462.61 550.39
  C 465.84 550.84 469.73 553.37 474.04 551.16
  Q 479.97 548.12 484.02 544.76
  Q 494.29 536.23 500.26 528.83
  Q 505.03 522.93 510.00 511.81
  C 511.32 508.87 511.95 505.84 512.85 502.79
  C 513.82 499.50 514.42 496.14 515.35 492.81
  Q 516.29 489.47 515.87 485.44
  Q 515.37 480.53 514.21 474.85
  C 513.99 473.82 514.19 472.84 514.49 471.85
  A 1.23 1.23 0.0 0 1 516.35 471.19
  Q 520.53 474.01 523.43 479.13
  Q 524.13 480.36 525.10 479.33
  Q 527.43 476.88 529.95 474.77
  Q 536.99 468.87 540.13 463.91
  Q 543.01 459.34 545.72 454.33
  C 546.04 453.74 545.92 453.16 546.16 452.68
  Q 547.85 449.30 549.35 446.04
  C 550.06 444.51 549.80 443.27 550.51 441.85
  Q 550.90 441.07 551.14 440.09
  Q 551.85 437.20 552.66 434.40
  C 553.05 433.08 552.63 431.53 553.72 430.71
  Q 554.23 430.32 553.63 430.11
  Q 552.88 429.83 552.93 428.97
  Q 552.96 428.48 553.33 428.16
  Q 554.45 427.19 553.96 425.47
  Q 553.75 424.72 553.41 425.43
  C 550.89 430.82 542.93 431.59 537.51 430.86
  A 0.53 0.52 -86.8 0 1 537.06 430.35
  Q 536.95 426.95 536.31 423.33
  C 535.43 418.28 536.38 413.87 540.69 410.83
  C 542.36 409.65 544.00 410.00 545.90 409.95
  C 548.95 409.86 550.43 412.73 549.99 415.54
  A 2.45 2.43 -72.1 0 0 551.27 418.07
  Q 553.24 419.09 553.18 421.33
  Q 553.16 422.11 553.76 421.62
  Q 555.84 419.92 554.34 417.73
  Q 554.06 417.31 554.24 416.84
  Q 555.59 413.42 554.42 409.24
  C 553.80 407.02 554.24 404.62 553.60 402.63
  Q 552.83 400.22 552.20 397.70
  Q 551.53 394.98 550.02 392.99
  Q 548.54 391.04 546.77 389.28
  Q 545.03 387.55 546.60 385.88
  C 548.71 383.64 552.45 385.94 554.19 387.53
  A 1.99 1.99 0.0 0 0 557.20 387.16
  C 561.33 380.85 563.73 374.25 566.13 366.11
  C 566.86 363.62 567.09 361.01 567.45 358.47
  Q 568.43 351.67 567.52 345.28
  C 567.03 341.87 566.96 338.63 566.78 335.24
  A 2.29 2.22 29.4 0 0 566.49 334.26
  C 565.78 333.05 566.16 331.93 565.63 330.61
  Q 563.98 326.50 562.28 322.44
  Q 562.00 321.77 561.80 321.05
  C 561.36 319.41 558.36 316.86 557.01 315.63
  C 555.04 313.83 555.53 311.06 558.07 309.99
  A 2.82 2.82 0.0 0 0 559.76 307.86
  C 560.11 305.84 560.99 304.08 560.98 302.01
  Q 560.97 300.23 561.49 298.57
  Q 561.66 298.04 561.48 297.51
  Q 560.99 296.09 561.13 294.68
  C 561.34 292.38 561.05 289.62 560.68 287.40
  Q 559.99 283.31 557.28 278.74
  Q 556.98 278.22 556.96 277.61
  Q 556.91 276.07 555.51 275.16
  A 0.85 0.83 -42.4 0 0 554.64 275.13
  C 552.26 276.53 549.63 277.08 547.10 278.24
  C 543.56 279.86 540.10 281.31 536.87 283.44
  Q 534.38 285.09 531.34 286.25
  A 0.61 0.61 0.0 0 0 531.01 287.09
  Q 533.66 292.65 538.16 296.43
  C 539.84 297.84 541.95 298.25 543.66 299.66
  Q 546.34 301.88 549.84 303.39
  A 1.71 1.70 -67.7 0 1 550.75 305.57
  Q 550.22 306.98 548.48 307.05
  C 544.40 307.21 540.24 306.43 536.84 304.07
  C 533.81 301.96 530.81 300.60 528.11 297.81
  C 526.44 296.08 524.58 294.43 523.18 292.45
  Q 518.95 286.45 518.79 279.23
  Q 518.66 272.96 519.87 264.79
  Q 520.62 259.76 522.85 256.53
  Q 524.80 253.72 527.68 255.56
  Q 528.78 256.26 529.32 256.61
  Q 532.16 258.42 530.26 261.21
  Q 526.63 266.53 526.98 274.88
  C 527.05 276.48 526.70 277.92 527.75 279.29
  Q 528.07 279.71 528.54 279.46
  Q 536.37 275.19 544.17 271.73
  C 546.11 270.87 547.70 269.78 549.51 268.76
  A 0.46 0.45 51.4 0 0 549.59 268.02
  Q 547.18 265.93 544.83 263.70
  Q 542.12 261.13 539.87 259.64
  Q 532.89 255.03 524.75 251.51
  C 523.55 250.99 521.61 250.84 521.08 249.41
  Q 520.33 247.36 522.47 246.23
  Q 523.05 245.92 523.69 246.04
  Q 525.47 246.37 526.71 244.79
  Q 526.91 244.55 526.72 244.30
  Q 524.96 241.99 524.94 239.40
  A 2.03 2.03 0.0 0 0 523.94 237.65
  Q 517.34 233.71 510.62 231.60
  Q 504.08 229.55 499.12 227.29
  Q 494.77 225.32 490.96 224.38
  Q 475.84 220.68 457.85 217.61
  Q 453.29 216.83 448.22 215.52
  C 444.01 214.44 439.66 214.03 435.45 212.96
  Q 427.72 211.00 420.36 210.51
  Q 415.29 210.18 410.50 209.17
  Q 400.90 207.16 389.43 207.15
  Q 384.90 207.15 380.57 208.57
  Q 369.07 212.35 360.11 217.63
  Q 354.76 220.79 350.34 225.43
  Q 345.60 230.41 340.92 236.22
  C 340.23 237.09 340.25 237.94 339.71 238.78
  Q 336.12 244.34 333.82 249.91
  C 332.46 253.20 327.86 256.99 325.80 251.38
  Q 316.85 227.05 295.17 211.42
  C 292.95 209.83 290.25 209.00 287.87 207.65
  A 3.73 3.69 54.4 0 0 285.41 207.23
  Q 274.69 209.15 264.26 211.31
  Q 263.61 211.44 263.20 212.20
  Q 262.92 212.72 263.50 212.82
  C 265.88 213.24 265.79 215.45 267.35 216.72
  A 0.44 0.44 0.0 0 0 268.04 216.53
  Q 268.16 216.19 268.64 216.09
  A 0.67 0.63 -41.6 0 1 269.01 216.10
  C 273.82 217.65 278.61 220.10 274.47 225.95
  C 273.35 227.54 271.86 229.65 270.08 230.46
  Q 266.26 232.22 261.65 232.43
  Q 261.15 232.46 260.75 232.16
  C 255.65 228.46 251.32 220.43 255.66 214.69
  Q 256.10 214.11 255.37 214.12
  Q 253.56 214.16 251.76 214.52
  Q 246.44 215.59 240.38 217.10
  Q 238.98 217.45 238.04 217.95
  Q 236.90 218.54 235.70 218.75
  Q 228.47 219.96 222.79 221.57
  Q 219.72 222.44 216.66 223.13
  Q 214.71 223.58 212.88 224.35
  C 211.12 225.08 209.35 225.16 207.55 225.83
  Q 204.96 226.78 202.90 227.18
  Q 199.47 227.85 190.49 230.23
  C 188.84 230.67 187.49 231.84 185.78 232.33
  Q 175.69 235.20 167.11 238.89
  Q 160.44 241.76 151.25 243.69
  Q 145.27 244.94 140.35 246.51
  Q 135.97 247.91 131.94 248.03
  Q 125.38 248.23 119.47 247.87
  C 118.23 247.79 116.89 246.75 115.79 247.78
  Q 106.79 256.23 105.32 267.55
  Q 104.93 270.53 104.31 273.42
  Q 103.81 275.70 104.04 284.11
  Q 104.05 284.62 104.45 284.95
  Q 105.18 285.54 105.04 286.54
  Q 104.87 287.85 105.71 286.83
  L 106.02 286.45
  Q 106.43 285.96 107.06 285.97
  L 113.43 286.07
  Q 114.03 286.08 114.02 286.68
  L 114.00 288.87
  Q 114.00 289.65 113.27 289.93
  C 107.31 292.23 102.52 297.55 99.13 302.67
  Q 96.35 306.89 94.64 312.48
  Q 92.91 318.13 91.06 323.49
  C 89.67 327.54 89.11 331.86 87.98 336.01
  Q 87.22 338.78 87.03 341.58
  Q 86.83 344.43 86.60 347.25
  Q 86.54 347.91 86.60 348.62
  Q 86.65 349.19 86.51 349.91
  Q 85.38 356.08 86.50 361.80
  Q 87.71 367.94 91.05 375.62
  Q 93.03 380.17 95.23 383.71
  C 97.42 387.24 94.85 390.55 94.21 394.00
  Q 92.45 403.56 93.32 413.59
  Q 94.11 422.61 95.58 429.30
  Q 96.64 434.17 99.48 440.58
  C 101.74 445.67 105.01 450.06 107.89 454.79
  C 111.20 460.25 115.66 464.63 121.17 467.63
  A 1.64 1.64 0.0 0 1 122.03 469.09
  L 122.01 471.35
  Q 122.00 472.10 122.75 472.03
  C 124.29 471.88 125.52 471.80 126.94 472.61
  Q 131.04 474.95 132.14 476.11
  Q 135.25 479.37 138.06 482.65
  C 141.39 486.53 144.28 492.64 145.31 498.18
  Q 145.87 501.22 146.60 504.17
  Q 147.18 506.48 147.11 509.63
  C 147.04 512.44 144.94 513.97 142.55 514.79
  A 1.89 1.89 0.0 0 1 140.05 512.88
  C 140.27 509.59 139.14 506.84 138.90 503.71
  C 138.69 500.88 137.47 498.49 136.79 495.78
  A 1.00 1.00 0.0 0 0 135.40 495.11
  L 126.71 499.11
  Q 126.21 499.34 126.44 499.84
  Q 131.46 510.33 138.52 518.82
  Q 142.40 523.48 146.42 526.06
  C 149.83 528.23 153.84 529.30 157.45 531.19
  C 160.12 532.59 163.09 531.08 165.17 533.52
  C 166.53 535.13 165.85 537.74 166.50 539.79
  Q 168.30 545.49 171.48 551.43
  C 172.27 552.91 174.04 553.88 174.01 555.58
  Q 173.90 560.67 168.92 561.94
  Q 167.85 562.21 166.94 561.45
  Q 162.77 557.99 160.64 553.89
  Q 158.30 549.38 157.06 544.64
  Q 156.49 542.45 154.24 542.26
  C 146.00 541.55 140.96 536.89 134.78 532.18
  C 132.27 530.26 130.58 527.51 128.82 524.84
  C 128.30 524.05 127.61 524.10 127.17 523.39
  Q 122.58 516.01 118.66 508.61
  C 117.98 507.33 117.84 506.25 118.01 504.85
  A 0.82 0.82 0.0 0 0 116.72 504.09
  Q 115.39 505.04 113.78 505.12
  Q 113.21 505.15 112.72 505.42
  L 106.58 508.83
  A 0.43 0.43 0.0 0 0 106.56 509.57
  Q 114.59 514.44 111.09 523.21
  Q 110.10 525.70 107.95 527.02
  Q 102.58 530.31 97.80 530.91
  C 93.81 531.41 90.44 533.21 86.46 533.87
  Q 83.58 534.34 80.99 535.20
  C 78.59 535.99 76.14 536.26 73.71 536.90
  Q 68.16 538.37 61.87 539.94
  Q 53.71 541.97 48.28 540.85
  C 44.90 540.15 43.75 536.71 46.11 534.26
  C 47.99 532.30 48.67 529.82 50.99 528.23
  Q 53.75 526.33 55.96 523.72
  C 60.34 518.55 65.44 513.81 70.18 508.98
  C 70.86 508.29 71.14 507.27 71.87 506.55
  C 74.94 503.53 77.23 499.83 80.46 496.97
  Q 84.34 493.53 90.93 491.15
  Q 92.64 490.54 94.20 491.24
  Q 100.85 494.21 103.04 501.41
  A 0.32 0.32 0.0 0 0 103.47 501.62
  Q 108.38 499.67 113.18 496.20
  Q 114.29 495.40 113.82 494.11
  C 112.53 490.56 111.06 486.38 110.98 482.69
  C 110.94 480.51 111.78 475.67 109.58 474.39
  Q 106.86 472.80 104.35 469.92
  Q 98.05 462.69 94.60 456.87
  Q 91.93 452.38 89.29 446.30
  Q 87.10 441.28 85.54 435.43
  Q 83.88 429.23 82.30 423.23
  Q 81.43 419.96 81.51 411.99
  C 81.53 410.03 80.70 408.03 81.09 406.14
  Q 81.74 402.95 81.87 399.70
  C 81.99 397.03 82.84 394.63 83.09 392.01
  Q 83.14 391.46 83.46 391.02
  Q 83.97 390.28 83.95 389.41
  Q 83.94 388.81 83.57 388.34
  Q 81.33 385.46 80.29 382.48
  Q 79.72 380.87 78.99 379.62
  C 77.44 376.96 76.97 373.26 76.05 370.24
  Q 75.01 366.83 74.79 363.66
  C 74.49 359.34 73.81 355.18 74.18 350.84
  Q 74.50 347.08 74.50 347.02
  Q 74.81 337.98 76.35 329.85
  Q 77.32 324.75 79.93 317.91
  Q 80.79 315.67 81.35 313.45
  Q 82.08 310.54 83.03 308.98
  C 85.15 305.51 86.82 301.80 89.37 298.65
  Q 91.29 296.28 92.69 293.50
  Q 92.95 292.98 92.69 292.46
  Q 91.34 289.69 91.04 286.79
  Q 89.98 276.36 92.32 265.99
  Q 93.99 258.58 97.70 249.77
  Q 99.08 246.50 101.67 244.35
  Q 102.04 244.05 101.82 243.63
  C 101.22 242.48 99.92 242.13 98.98 241.30
  C 95.98 238.65 92.70 236.41 90.20 233.25
  C 88.47 231.08 86.41 229.19 85.44 226.58
  C 83.48 221.34 80.44 217.16 79.36 211.41
  Q 77.16 199.60 78.04 188.49
  C 78.43 183.48 78.70 178.03 79.84 173.21
  Q 82.55 161.81 89.16 152.14
  C 91.74 148.36 95.22 144.79 98.36 141.54
  Q 101.07 138.74 105.54 135.71
  C 109.81 132.81 114.44 130.97 118.95 128.50
  Q 121.50 127.10 124.76 126.07
  C 131.78 123.86 138.85 121.65 145.62 118.93
  C 154.44 115.38 163.65 112.54 172.26 107.69
  Q 174.25 106.57 177.17 105.98
  Q 179.67 105.47 181.88 104.14
  Q 187.41 100.81 191.61 97.54
  Q 201.01 90.22 203.73 78.72
  Q 204.33 76.16 204.79 73.08
  Q 205.28 69.81 204.81 67.01
  Q 204.34 64.23 203.76 61.33
  C 202.74 56.31 199.43 51.94 194.87 49.38
  Q 191.39 47.42 188.76 47.05
  Q 186.17 46.69 183.72 45.52
  A 1.52 1.49 48.1 0 0 182.60 45.45
  C 179.80 46.36 177.13 45.49 174.50 46.83
  C 169.62 49.32 166.13 52.36 165.28 58.24
  Q 165.01 60.13 165.53 62.16
  Q 166.05 64.21 166.39 66.45
  Q 166.81 69.24 168.95 70.77
  Q 170.89 72.15 173.31 72.09
  C 178.65 71.95 183.18 69.13 183.08 63.09
  A 2.17 2.17 0.0 0 1 186.22 61.12
  C 189.75 62.88 189.61 65.03 190.77 68.15
  C 191.38 69.78 192.14 70.93 191.97 72.76
  Q 191.51 77.67 189.17 81.75
  C 185.72 87.77 179.34 93.31 172.19 93.38
  C 165.58 93.44 160.35 92.29 155.14 87.66
  Q 151.57 84.48 150.01 78.44
  Q 148.75 73.55 148.17 68.78
  Q 147.84 66.07 148.85 63.49
  Q 151.44 56.88 155.65 51.06
  Q 159.27 46.06 163.57 43.44
  C 172.22 38.15 184.72 35.31 194.27 40.64
  Q 196.88 42.09 199.65 43.30
  C 201.90 44.29 204.36 45.91 206.02 47.65
  C 210.49 52.32 214.72 58.66 216.55 65.08
  C 217.27 67.61 218.65 69.76 219.22 72.36
  Q 220.18 76.74 221.19 81.45
  Q 222.17 86.04 222.09 90.52
  Q 221.87 101.91 219.02 113.09
  Q 217.72 118.16 214.78 121.71
  Q 213.08 123.76 215.51 122.68
  Q 218.41 121.38 221.48 120.93
  Q 227.59 120.04 232.61 118.68
  Q 238.33 117.13 243.69 116.43
  Q 254.91 114.96 265.03 113.34
  C 271.23 112.35 277.18 111.78 283.34 110.89
  Q 291.35 109.75 299.01 109.78
  Q 302.02 109.80 304.36 109.51
  C 311.62 108.63 319.34 108.79 326.22 108.66
  C 328.52 108.62 330.91 109.10 333.20 109.06
  Q 356.00 108.61 377.75 109.89
  Q 381.52 110.11 388.12 109.29
  Q 391.54 108.86 399.40 109.81
  Q 404.77 110.46 410.43 110.93
  Q 419.26 111.66 428.21 112.90
  Q 433.38 113.61 439.05 114.07
  Q 444.49 114.51 450.31 114.98
  C 452.76 115.17 454.11 117.62 454.88 119.75
  A 2.44 2.43 -19.1 0 1 453.36 122.87
  Q 451.47 123.50 449.39 122.66
  Q 446.03 121.30 442.98 121.25
  Q 440.67 121.21 438.49 120.98
  Q 422.15 119.27 406.26 117.35
  C 405.48 117.26 404.86 117.60 404.25 117.55
  Q 394.93 116.82 385.70 117.07
  C 381.20 117.20 376.47 116.67 371.94 116.72
  C 370.83 116.73 369.80 116.36 368.73 116.34
  Q 354.11 116.00 336.53 115.95
  Q 326.80 115.93 316.51 116.62
  Q 307.47 117.23 296.66 117.47
  Q 284.25 117.75 262.06 121.75
  Q 259.39 122.23 256.51 122.33
  Q 253.80 122.42 251.07 123.02
  Q 244.79 124.40 237.08 125.67
  Q 232.40 126.44 228.07 127.71
  Q 223.59 129.03 218.96 129.95
  C 215.31 130.67 211.88 131.86 208.27 132.79
  A 1.55 1.53 52.7 0 1 207.13 132.63
  C 204.51 131.10 204.24 128.07 206.23 125.87
  Q 206.59 125.47 206.70 124.94
  C 206.90 123.89 206.87 123.17 207.56 122.25
  Q 211.65 116.72 212.68 111.46
  Q 213.20 108.79 213.62 106.07
  C 214.39 100.96 214.04 95.35 213.98 90.18
  C 213.94 86.58 212.65 83.33 212.82 79.79
  Q 212.89 78.46 212.30 79.65
  Q 210.79 82.71 209.94 86.53
  Q 209.30 89.44 205.73 93.83
  Q 199.52 101.45 191.60 107.32
  C 189.77 108.69 187.77 109.15 186.04 110.55
  C 184.41 111.87 182.37 112.62 180.54 113.64
  C 177.89 115.11 175.15 115.75 172.59 117.38
  Q 170.53 118.70 168.22 119.31
  Q 155.00 122.83 141.87 128.09
  Q 136.58 130.22 130.02 132.13
  Q 121.35 134.66 113.84 138.64
  Q 107.25 142.12 101.76 149.17
  Q 100.18 151.19 99.49 154.73
  C 98.91 157.66 99.81 160.61 102.18 162.46
  C 104.75 164.45 109.86 166.05 113.51 166.33
  A 1.13 1.12 19.7 0 1 114.35 168.09
  C 112.45 170.82 108.75 171.12 105.72 171.63
  C 101.87 172.29 94.91 170.11 93.16 166.25
  Q 91.97 163.63 90.92 166.30
  Q 86.91 176.44 86.16 188.43
  Q 86.01 190.89 85.74 193.66
  C 85.40 197.16 86.03 200.59 86.13 204.09
  C 86.25 208.42 88.09 212.85 89.53 216.93
  C 90.71 220.30 92.79 222.84 94.48 225.90
  C 96.38 229.32 99.92 232.45 102.67 235.24
  C 103.88 236.46 105.70 237.13 107.29 237.58
  Q 120.29 241.18 133.19 239.57
  Q 137.72 239.00 142.52 238.30
  Q 146.78 237.67 151.58 236.05
  Q 159.34 233.42 167.07 230.45
  Q 176.55 226.82 182.54 224.85
  Q 191.20 222.00 200.03 219.13
  C 206.93 216.89 213.57 214.39 220.68 212.69
  Q 231.33 210.15 241.99 207.45
  C 248.73 205.74 255.61 204.67 262.51 203.52
  C 264.17 203.24 265.61 202.61 267.31 202.37
  Q 292.53 198.69 308.78 197.54
  Q 310.57 197.41 312.27 197.29
  Q 314.02 197.16 315.74 197.45
  Q 318.57 197.93 321.40 197.64
  Q 324.13 197.35 326.92 197.67
  Q 329.48 197.97 332.23 197.66
  C 335.88 197.24 339.61 197.41 343.24 197.30
  Q 346.02 197.22 348.80 197.53
  C 357.01 198.43 365.41 197.83 373.48 198.06
  Q 379.73 198.25 385.95 199.22
  Q 388.13 199.56 390.09 199.49
  C 394.47 199.32 398.91 199.99 403.25 200.10
  C 411.15 200.31 419.07 201.07 426.88 202.02
  Q 431.67 202.61 436.61 203.90
  C 444.41 205.93 452.35 207.13 460.15 208.71
  Q 473.54 211.42 485.09 215.43
  Q 488.30 216.54 491.52 217.28
  C 497.97 218.76 503.56 221.52 510.07 223.32
  Q 514.48 224.54 519.96 227.40
  C 523.20 229.09 526.87 230.27 530.28 231.62
  Q 535.21 233.58 539.10 237.31
  C 540.42 238.57 541.69 239.89 540.32 241.75
  Q 539.17 243.32 538.19 244.69
  Q 538.00 244.96 538.14 245.26
  L 539.24 247.67
  Q 539.37 247.95 539.59 247.73
  C 541.63 245.66 544.09 244.50 546.05 242.27
  Q 558.24 228.47 563.96 210.43
  Q 566.52 202.35 565.77 192.88
  Q 565.48 189.30 565.11 185.70
  Q 564.75 182.21 563.66 178.80
  Q 561.40 171.71 559.22 167.79
  Q 557.18 164.12 552.94 159.61
  C 549.22 155.65 544.23 152.58 539.81 149.27
  Q 536.62 146.88 533.46 144.96
  C 529.02 142.26 524.56 140.54 520.01 138.53
  C 516.34 136.91 511.94 135.81 508.00 135.24
  C 502.52 134.46 497.48 132.43 491.99 131.83
  Q 486.18 131.19 480.69 130.03
  A 1.08 1.06 -83.1 0 1 479.84 128.93
  C 480.16 122.95 485.40 122.28 490.23 123.02
  Q 497.89 124.21 504.20 125.85
  C 507.62 126.74 511.10 127.45 514.58 128.02
  C 518.75 128.70 522.45 130.34 526.40 131.78
  Q 528.80 132.65 530.97 133.87
  C 534.77 136.01 538.54 137.38 542.08 140.30
  Q 545.34 142.99 548.64 145.20
  Q 551.74 147.29 554.57 149.92
  C 560.65 155.55 566.10 161.11 569.61 168.35
  Q 571.76 172.77 572.88 178.72
  Q 574.78 188.77 573.99 201.00
  Q 573.13 214.26 567.47 224.30
  C 566.37 226.25 565.76 228.17 565.10 230.27
  Q 564.71 231.51 564.00 232.50
  Q 562.62 234.41 561.25 236.45
  Q 560.24 237.96 559.42 239.59
  Q 558.69 241.02 557.41 242.33
  Q 556.27 243.50 555.47 244.90
  Q 552.02 250.92 546.49 253.95
  A 0.50 0.50 0.0 0 0 546.42 254.78
  L 554.93 261.42
  Q 555.51 261.87 555.88 261.23
  Q 557.24 258.90 557.89 255.99
  Q 559.70 247.88 563.79 236.87
  Q 564.61 234.68 565.71 232.98
  C 567.72 229.90 568.82 226.22 571.60 223.93
  Q 573.96 221.98 576.67 220.17
  Q 579.54 218.26 582.26 219.40
  Q 582.71 219.59 583.17 219.43
  L 583.49 219.32
  Q 583.64 219.27 583.75 219.37
  Q 584.64 220.15 585.95 220.07
  Q 586.50 220.03 586.75 219.54
  C 587.79 217.51 587.85 215.49 588.76 213.47
  Q 591.46 207.44 596.03 203.07
  Q 602.41 196.96 610.92 193.89
  C 613.26 193.04 616.51 192.45 618.69 193.14
  Q 621.09 193.89 623.04 194.09
  Q 623.55 194.14 623.89 194.53
  Q 624.46 195.21 625.33 195.00
  Q 625.84 194.88 625.94 194.37
  Q 626.19 193.09 626.96 191.98
  Q 633.81 182.20 645.19 179.17
  C 647.93 178.44 652.50 178.76 655.29 180.02
  Q 659.62 181.98 663.38 185.18
  Q 664.95 186.52 665.92 188.52
  C 666.76 190.28 667.78 191.94 668.00 193.93
  Q 668.34 197.03 668.33 200.03
  C 668.33 203.44 669.82 205.54 668.18 209.08
  Q 667.46 210.65 668.40 211.83
  Q 668.92 212.49 670.50 213.03
  Q 674.39 214.38 678.00 216.55
  Z
  M 644.54 219.07
  Q 649.65 216.72 655.33 213.38
  C 657.13 212.33 657.77 210.54 658.69 208.79
  Q 659.36 207.52 659.18 206.07
  C 658.77 202.68 658.11 198.04 653.58 197.95
  Q 647.30 197.81 645.22 198.53
  Q 640.33 200.21 636.44 204.87
  Q 634.46 207.26 633.72 209.81
  C 632.94 212.45 631.04 218.93 628.46 220.34
  C 625.51 221.94 622.47 220.75 622.05 217.26
  C 621.79 215.13 620.69 213.25 618.36 213.01
  Q 611.03 212.25 604.20 217.63
  Q 599.94 220.99 598.24 224.00
  Q 597.01 226.18 595.87 228.53
  Q 594.68 230.99 593.89 233.46
  Q 592.55 237.65 589.87 242.32
  C 588.65 244.44 585.14 245.14 584.22 242.47
  Q 583.80 241.26 583.86 239.86
  A 1.34 1.34 0.0 0 0 581.87 238.63
  C 580.95 239.14 580.00 238.98 579.02 239.24
  C 574.29 240.54 571.10 243.76 569.39 248.36
  Q 568.52 250.69 567.37 252.83
  Q 565.54 256.25 566.09 260.53
  A 0.33 0.33 0.0 0 0 566.66 260.72
  C 568.74 258.56 571.11 258.58 573.28 256.95
  C 575.16 255.55 576.76 254.23 578.86 253.02
  Q 587.26 248.19 599.50 242.31
  Q 608.38 238.05 619.85 231.19
  C 622.41 229.65 625.17 228.55 627.88 227.19
  Q 630.93 225.66 634.07 224.33
  C 637.67 222.81 640.94 220.72 644.54 219.07
  Z
  M 310.54 205.82
  Q 315.43 208.24 318.17 211.86
  Q 319.97 214.24 322.18 216.31
  Q 326.41 220.28 329.26 226.47
  A 0.80 0.79 -31.5 0 0 330.48 226.76
  Q 332.05 225.52 333.03 224.00
  C 335.97 219.47 340.62 213.42 345.51 210.87
  Q 348.04 209.56 350.65 207.50
  Q 351.31 206.98 350.47 207.02
  Q 347.52 207.17 344.61 206.52
  C 340.07 205.50 334.39 206.04 329.66 206.02
  Q 325.59 206.00 321.23 205.34
  Q 316.28 204.59 310.66 205.14
  Q 309.43 205.27 310.54 205.82
  Z
  M 594.85 258.36
  A 2.62 2.61 17.5 0 1 598.64 256.39
  Q 599.96 257.07 601.49 257.02
  C 604.77 256.91 607.56 258.69 610.85 258.85
  Q 614.47 259.03 618.23 259.68
  Q 620.62 260.09 622.40 259.62
  Q 630.63 257.47 637.76 253.94
  C 640.25 252.71 640.73 251.16 642.15 249.27
  Q 643.35 247.66 641.38 247.26
  Q 637.11 246.39 634.58 243.03
  C 633.57 241.68 633.43 239.51 634.98 238.49
  Q 635.42 238.21 635.94 238.29
  C 640.41 238.94 644.75 240.20 649.08 239.92
  Q 654.86 239.56 658.91 238.32
  Q 664.45 236.62 668.27 231.02
  Q 672.46 224.87 667.23 219.84
  Q 665.86 218.52 663.77 218.11
  Q 663.23 218.00 662.76 218.29
  Q 658.03 221.12 653.40 223.69
  C 651.04 225.00 648.48 225.72 646.12 227.09
  C 641.90 229.54 637.31 231.17 633.01 233.63
  Q 628.96 235.93 625.26 237.76
  Q 618.83 240.93 612.52 244.18
  Q 606.09 247.49 599.19 251.89
  C 596.63 253.52 593.61 254.03 591.08 255.68
  Q 588.07 257.65 584.74 259.01
  C 582.70 259.83 581.31 261.31 579.28 262.15
  C 575.83 263.57 572.97 265.76 569.44 267.16
  Q 568.58 267.50 568.15 268.37
  Q 567.82 269.01 568.54 269.00
  L 570.97 269.00
  A 1.22 1.19 -23.8 0 1 571.77 269.30
  C 572.77 270.17 574.23 269.97 575.51 270.36
  Q 579.38 271.53 583.68 270.54
  C 587.25 269.73 591.18 269.42 594.42 267.64
  Q 596.78 266.35 598.77 264.66
  A 0.92 0.91 -55.9 0 0 598.47 263.09
  Q 594.38 261.75 594.85 258.36
  Z
  M 241.05 268.72
  C 236.86 264.10 230.73 260.38 224.40 260.03
  Q 215.71 259.56 208.17 260.95
  C 204.78 261.58 202.07 264.01 200.09 266.60
  Q 196.35 271.46 194.70 277.90
  Q 193.90 281.06 195.01 283.90
  Q 195.97 286.34 198.80 288.73
  Q 202.52 291.87 206.75 292.63
  C 210.98 293.39 215.42 292.34 219.50 293.72
  C 223.83 295.18 226.55 297.27 227.76 301.87
  Q 229.10 306.94 230.37 312.38
  Q 231.10 315.47 233.58 316.67
  C 235.32 317.51 237.37 316.36 239.18 316.10
  C 244.30 315.37 248.86 311.36 251.34 307.05
  C 252.18 305.59 253.24 304.20 253.85 302.63
  Q 255.74 297.74 257.05 292.81
  C 257.58 290.81 258.86 289.14 259.77 287.26
  A 0.94 0.94 0.0 0 0 259.61 286.21
  Q 253.27 279.34 246.14 273.54
  Q 243.46 271.36 241.05 268.72
  Z
  M 418.85 407.44
  Q 418.98 407.48 419.11 407.54
  Q 419.52 407.75 419.94 407.54
  C 421.44 406.78 422.84 407.35 424.43 407.23
  Q 427.65 406.99 430.61 406.29
  Q 445.05 402.88 457.95 395.27
  Q 463.94 391.73 468.95 386.64
  Q 476.66 378.80 483.55 369.37
  Q 485.90 366.14 486.84 362.67
  Q 488.58 356.19 489.34 350.28
  Q 489.52 348.81 489.24 347.20
  C 488.51 343.03 488.42 339.80 484.42 337.33
  Q 477.99 333.36 471.95 332.50
  C 468.52 332.01 465.73 330.33 462.56 329.16
  Q 460.92 328.55 459.85 327.04
  C 458.12 324.60 456.04 321.77 457.49 318.70
  Q 457.62 318.44 457.52 318.16
  L 457.39 317.82
  Q 457.26 317.45 457.31 317.07
  C 457.79 313.29 458.68 309.56 458.79 305.74
  C 459.03 297.61 459.16 290.62 454.23 283.88
  Q 449.76 277.79 442.70 275.01
  Q 427.70 269.12 415.48 275.29
  C 410.60 277.75 404.56 280.63 400.86 284.81
  C 395.99 290.34 391.78 295.96 388.05 302.47
  Q 385.52 306.87 383.68 312.54
  Q 380.57 322.11 378.42 330.38
  C 376.87 336.37 376.31 342.91 375.67 349.17
  A 0.88 0.86 36.2 0 0 375.75 349.65
  Q 375.90 349.93 375.90 350.27
  C 376.12 358.96 376.70 368.10 375.84 376.81
  Q 375.34 381.88 374.55 384.99
  C 373.65 388.49 372.09 393.33 369.75 395.81
  Q 367.63 398.06 370.73 397.94
  C 371.78 397.91 373.13 397.96 374.00 398.59
  C 377.18 400.90 380.71 400.45 384.13 402.04
  Q 386.72 403.25 389.42 404.34
  Q 392.20 405.47 394.80 406.03
  Q 399.24 406.99 403.61 407.82
  Q 405.50 408.18 407.27 407.39
  Q 407.75 407.18 408.25 407.33
  Q 413.04 408.77 418.60 407.43
  Q 418.73 407.40 418.85 407.44
  Z
  M 217.83 444.61
  Q 218.67 444.88 219.42 443.91
  C 221.35 441.41 223.96 439.67 225.95 437.10
  Q 236.04 424.08 241.02 410.71
  Q 243.10 405.13 245.36 399.82
  Q 247.64 394.46 249.69 388.73
  C 250.43 386.66 251.53 384.90 252.17 382.75
  Q 255.23 372.55 257.45 364.84
  C 258.99 359.50 256.87 354.88 254.89 350.11
  Q 253.99 347.95 252.50 345.98
  C 249.87 342.51 247.84 339.60 243.62 337.79
  C 241.64 336.94 239.75 337.02 237.68 336.71
  Q 235.77 336.42 233.67 336.92
  C 231.06 337.55 228.59 338.09 226.08 339.03
  Q 214.46 343.41 204.20 338.92
  Q 199.71 336.95 195.49 331.96
  C 192.68 328.65 191.83 324.43 188.69 321.26
  Q 184.74 317.28 178.97 314.82
  C 174.28 312.82 169.52 314.81 165.07 316.80
  C 162.76 317.83 161.29 319.35 159.32 320.76
  C 155.49 323.49 153.14 328.09 152.08 332.58
  Q 150.12 340.90 149.65 349.46
  C 149.59 350.63 150.00 351.68 149.99 352.75
  Q 149.86 365.90 150.16 375.01
  Q 150.55 386.60 154.72 396.22
  Q 155.61 398.25 155.99 400.30
  C 156.63 403.68 158.39 406.55 159.29 409.83
  C 160.67 414.83 164.66 419.85 167.34 424.22
  Q 169.74 428.15 173.12 431.46
  Q 177.32 435.59 182.20 439.04
  C 185.24 441.19 188.67 443.13 191.36 445.67
  Q 192.88 447.11 194.45 447.56
  Q 198.12 448.60 202.02 449.36
  C 208.38 450.61 211.85 450.15 216.92 446.35
  Q 217.73 445.74 217.57 444.83
  Q 217.52 444.51 217.83 444.61
  Z
  M 356.66 369.37
  C 358.26 364.92 359.66 361.33 358.66 356.41
  C 357.42 350.28 349.89 347.33 344.32 348.62
  C 341.98 349.16 339.65 349.21 337.27 349.78
  Q 333.15 350.79 328.27 351.61
  Q 324.78 352.19 321.92 351.02
  C 311.70 346.85 312.48 335.45 310.28 326.47
  Q 309.04 321.43 305.17 318.53
  Q 302.92 316.85 300.04 316.21
  Q 296.15 315.34 294.30 315.38
  Q 284.58 315.62 277.76 322.62
  Q 275.06 325.40 273.96 328.90
  Q 270.46 339.99 269.64 347.88
  Q 269.41 350.10 269.72 352.42
  Q 270.01 354.56 270.15 356.88
  C 270.30 359.47 271.17 361.81 271.43 364.30
  Q 271.72 367.01 272.50 369.68
  C 273.44 372.87 274.26 376.08 275.65 379.13
  Q 278.86 386.22 283.08 393.23
  C 284.83 396.14 287.25 398.42 289.47 400.92
  Q 295.79 408.06 305.59 406.88
  Q 317.72 405.43 327.47 397.82
  Q 335.68 391.42 345.58 383.87
  Q 348.17 381.89 350.36 379.10
  C 352.95 375.82 355.35 373.00 356.66 369.37
  Z
  M 346.34 473.13
  C 348.70 468.79 351.71 464.30 353.38 459.92
  Q 355.46 454.46 357.42 447.87
  Q 358.08 445.65 359.03 439.67
  C 359.43 437.14 358.97 434.66 359.05 432.08
  C 359.28 424.42 352.75 412.61 344.51 411.17
  C 341.33 410.62 337.46 410.82 334.44 412.26
  Q 331.76 413.54 329.25 414.72
  C 326.83 415.86 325.07 417.74 323.04 419.46
  Q 319.86 422.15 316.56 424.72
  Q 312.79 427.63 302.38 432.82
  C 300.16 433.93 297.82 434.30 295.47 435.08
  C 292.11 436.19 288.47 436.36 284.87 436.84
  Q 280.61 437.42 276.19 435.74
  Q 270.32 433.50 265.06 430.85
  Q 263.56 430.10 261.89 430.33
  Q 254.20 431.39 248.84 437.51
  C 240.60 446.88 235.67 456.78 241.71 469.03
  Q 244.27 474.23 246.96 476.12
  C 250.58 478.66 253.04 482.53 256.57 484.88
  Q 260.74 487.65 265.84 489.84
  Q 269.56 491.43 273.33 493.20
  Q 277.36 495.09 280.75 496.51
  Q 281.50 496.82 282.38 497.08
  Q 286.74 498.37 290.94 499.41
  C 294.45 500.27 297.59 501.61 301.23 502.34
  Q 304.65 503.03 310.75 506.33
  Q 311.22 506.58 311.76 506.52
  C 316.91 505.86 321.63 502.16 325.71 498.81
  Q 327.86 497.05 329.55 495.13
  Q 331.36 493.07 333.35 491.53
  Q 336.06 489.42 338.29 486.18
  Q 342.65 479.86 346.34 473.13
  Z
  M 454.50 427.77
  Q 454.96 428.38 454.96 429.15
  Q 454.97 434.85 455.11 440.12
  Q 455.24 445.35 454.04 450.36
  Q 452.45 457.03 450.73 460.25
  Q 449.31 462.90 443.90 469.32
  C 442.47 471.01 440.83 472.19 439.42 473.86
  C 437.15 476.55 434.41 478.35 431.96 480.70
  C 428.69 483.84 423.81 485.75 419.44 487.11
  C 410.33 489.94 402.26 486.38 394.02 483.10
  A 1.90 1.89 -56.4 0 0 391.97 483.52
  L 386.75 488.72
  Q 385.96 489.51 386.38 490.55
  Q 387.64 493.68 388.03 496.90
  C 388.40 499.98 389.30 502.87 389.93 505.90
  C 390.92 510.61 395.96 511.77 400.18 510.64
  Q 406.39 508.97 412.47 506.79
  C 414.64 506.01 416.49 504.66 418.61 503.75
  Q 420.94 502.75 423.23 501.41
  Q 439.01 492.23 452.10 481.05
  Q 455.06 478.53 456.99 476.10
  Q 462.16 469.59 467.83 463.33
  C 470.30 460.59 472.46 457.36 474.53 454.33
  C 476.09 452.04 476.70 449.11 477.65 446.46
  Q 478.77 443.33 478.98 440.34
  Q 479.48 433.16 474.72 427.40
  Q 472.29 424.46 468.78 421.40
  Q 464.63 417.79 459.30 417.85
  Q 458.59 417.86 457.91 417.57
  Q 457.30 417.31 456.56 417.45
  Q 444.83 419.67 436.98 428.51
  A 1.41 1.37 -73.2 0 1 436.17 428.96
  Q 434.85 429.18 433.99 430.51
  Q 433.72 430.92 434.20 431.02
  Q 435.37 431.26 436.10 430.43
  Q 436.46 430.02 437.00 430.01
  C 438.50 429.99 439.83 430.10 441.31 429.73
  Q 446.93 428.33 452.80 427.12
  A 1.72 1.71 65.7 0 1 454.50 427.77
  Z
  M 410.77 451.97
  Q 412.40 453.52 411.28 455.46
  C 410.10 457.49 407.65 462.45 407.95 464.97
  A 1.36 1.36 0.0 0 0 410.01 465.97
  C 411.71 464.93 413.40 463.86 414.83 462.49
  Q 417.64 459.81 420.78 457.76
  C 422.78 456.44 423.94 454.52 426.05 453.31
  A 1.43 1.42 -26.4 0 0 426.66 451.51
  Q 424.61 446.65 428.11 442.14
  C 429.06 440.90 430.80 440.84 431.67 442.23
  A 2.14 2.14 0.0 0 1 431.76 444.32
  Q 430.77 446.27 431.08 448.32
  A 0.87 0.87 0.0 0 0 432.53 448.83
  C 435.35 446.28 439.12 443.03 440.80 439.42
  Q 441.82 437.22 443.67 435.57
  Q 444.27 435.04 443.47 435.03
  Q 442.46 435.01 441.49 435.36
  C 439.31 436.14 437.18 436.01 435.01 436.82
  C 432.20 437.87 429.48 437.86 426.79 439.03
  Q 425.09 439.77 423.18 440.31
  Q 416.31 442.23 407.71 447.87
  Q 399.27 453.41 395.55 461.99
  C 393.81 466.00 392.96 470.89 395.40 474.76
  A 0.64 0.63 58.5 0 0 396.25 474.97
  L 404.23 470.26
  Q 404.70 469.99 404.53 469.47
  L 403.14 465.17
  Q 403.00 464.74 403.09 464.30
  C 404.07 459.70 404.79 455.96 407.85 452.09
  Q 408.89 450.78 410.33 451.64
  Q 410.56 451.78 410.77 451.97
  Z
  M 410.10 438.98
  Q 410.56 438.88 410.80 438.51
  Q 411.18 437.93 410.49 438.03
  Q 408.86 438.27 407.70 437.36
  Q 407.20 436.96 406.56 437.00
  Q 403.24 437.21 400.10 436.32
  Q 396.42 435.27 392.32 437.00
  Q 383.03 440.93 378.22 448.04
  Q 373.47 455.07 373.77 464.20
  Q 374.10 474.37 381.85 482.18
  Q 383.10 483.44 384.60 482.51
  L 388.71 479.96
  A 2.13 2.12 61.0 0 0 389.49 477.22
  Q 389.03 476.29 389.01 475.26
  Q 388.95 472.71 388.53 470.23
  Q 388.31 468.95 388.57 467.66
  C 389.02 465.37 388.89 463.27 389.74 461.03
  C 391.75 455.71 394.30 449.39 399.57 446.67
  Q 401.98 445.43 403.67 443.77
  Q 405.91 441.58 409.32 439.31
  Q 409.68 439.07 410.10 438.98
  Z
  M 444.85 455.41
  C 442.74 459.05 437.16 459.42 433.19 458.84
  C 432.46 458.73 431.52 458.34 431.08 457.70
  A 1.66 1.66 0.0 0 0 428.58 457.42
  Q 425.61 460.16 422.73 462.00
  C 419.19 464.26 416.44 467.05 413.03 469.38
  Q 410.70 470.97 413.52 471.00
  L 414.39 471.01
  Q 414.89 471.01 415.33 471.25
  Q 417.50 472.45 420.00 471.74
  Q 423.81 470.67 427.42 469.33
  A 1.86 1.86 0.0 0 1 429.82 470.44
  C 430.81 473.19 427.34 475.08 425.27 475.78
  Q 415.70 478.99 407.72 473.66
  Q 407.34 473.41 406.97 473.68
  Q 403.19 476.43 398.83 478.67
  Q 397.60 479.30 398.91 479.75
  Q 402.32 480.91 405.91 482.01
  Q 413.05 484.19 420.48 481.14
  Q 425.35 479.14 427.66 477.50
  Q 432.93 473.74 437.94 468.62
  C 441.54 464.95 444.14 460.64 445.85 455.90
  Q 448.43 448.75 449.92 440.71
  Q 450.15 439.44 450.06 438.04
  Q 449.98 436.61 448.89 437.54
  Q 446.86 439.28 445.33 442.05
  C 444.01 444.42 441.29 446.25 439.68 448.63
  Q 438.23 450.80 435.45 452.36
  Q 432.58 453.98 435.88 454.04
  Q 438.87 454.09 442.28 452.94
  Q 443.95 452.39 444.83 453.64
  Q 445.40 454.46 444.85 455.41
  Z
  M 125.24 490.84
  L 132.24 487.82
  Q 132.97 487.50 132.41 486.93
  C 130.14 484.62 127.77 481.75 124.77 480.41
  Q 122.99 479.61 121.68 478.24
  A 0.34 0.34 0.0 0 0 121.09 478.44
  Q 120.50 484.47 122.52 489.70
  A 2.05 2.05 0.0 0 0 125.24 490.84
  Z
  M 235.02 491.76
  Q 229.53 487.06 223.67 489.82
  C 214.69 494.04 214.94 505.36 217.53 514.07
  Q 219.85 521.86 224.10 528.21
  C 227.61 533.45 231.59 538.35 237.55 540.73
  Q 238.11 540.95 238.10 540.34
  C 238.02 537.76 237.44 535.29 237.71 532.75
  C 238.09 529.28 238.02 525.89 238.72 522.50
  Q 240.47 513.99 244.66 505.54
  Q 244.94 504.96 244.66 504.38
  Q 241.00 496.89 235.02 491.76
  Z
  M 290.82 635.03
  C 291.42 638.07 288.52 641.50 286.73 643.78
  Q 285.47 645.38 287.11 646.57
  Q 290.49 649.03 293.68 650.61
  Q 298.72 653.12 307.19 655.58
  C 308.65 656.00 310.19 655.82 311.51 656.39
  Q 313.09 657.07 314.76 656.97
  C 322.22 656.54 331.30 655.19 337.97 652.74
  C 341.29 651.51 344.94 650.66 347.93 648.91
  Q 355.91 644.24 362.89 638.37
  Q 366.44 635.38 370.04 632.43
  C 371.70 631.06 373.73 630.38 374.93 628.51
  Q 375.34 627.86 374.58 627.95
  Q 372.14 628.23 370.00 627.77
  Q 368.03 627.36 365.81 627.15
  Q 361.51 626.74 357.13 626.37
  Q 345.73 625.40 331.81 626.66
  Q 324.70 627.31 319.16 626.76
  Q 314.89 626.35 310.87 626.58
  Q 303.59 627.01 299.96 626.73
  Q 294.03 626.28 288.81 626.71
  C 281.71 627.29 274.47 627.10 267.34 627.29
  C 266.17 627.33 265.03 627.74 264.00 627.78
  Q 258.03 628.00 252.00 628.04
  Q 247.97 628.06 251.37 630.23
  C 253.01 631.28 254.29 632.70 256.11 633.51
  Q 263.30 636.77 268.86 637.72
  Q 277.91 639.26 285.91 634.74
  C 287.17 634.03 288.52 634.13 289.92 634.23
  A 0.98 0.98 0.0 0 1 290.82 635.03
  Z
  M 375.36 656.15
  Q 375.19 656.20 375.14 656.35
  Q 374.77 657.49 375.64 656.67
  C 376.87 655.53 377.95 654.29 379.58 653.74
  C 382.91 652.62 385.54 650.69 388.90 649.57
  Q 406.09 643.84 424.40 644.94
  C 427.31 645.11 429.74 646.26 432.53 646.66
  C 436.51 647.24 440.38 648.51 444.40 649.33
  C 447.30 649.92 449.84 651.02 452.64 651.69
  Q 455.73 652.44 458.81 653.41
  Q 469.23 656.70 478.67 659.86
  Q 481.35 660.76 484.38 661.25
  Q 487.27 661.72 490.12 662.15
  Q 490.65 662.24 490.98 662.66
  Q 492.14 664.14 493.07 661.97
  A 1.42 1.42 0.0 0 0 492.87 660.53
  Q 489.28 656.09 484.63 654.18
  C 481.85 653.04 479.69 651.23 476.96 650.26
  C 473.30 648.96 469.75 647.43 466.01 646.32
  Q 460.96 644.82 456.18 643.08
  C 452.91 641.89 449.51 641.37 446.22 640.36
  Q 442.49 639.23 438.44 638.43
  C 429.37 636.66 420.99 634.28 411.68 633.92
  Q 409.99 633.85 408.27 633.68
  Q 405.47 633.40 403.22 634.24
  Q 396.23 636.86 387.72 641.97
  Q 383.71 644.37 382.29 646.29
  Q 379.20 650.44 376.06 654.60
  Q 375.95 654.74 375.91 654.92
  Q 375.86 655.10 375.90 655.26
  Q 376.03 655.94 375.36 656.15
  Z"
/>
<ellipse fill="#fff" cx="0.00" cy="0.00" transform="translate(466.87,122.15) rotate(71.7)" rx="11.21" ry="10.54"/>
<path fill="#fff" d="
  M 201.66 127.57
  C 204.21 132.89 203.22 136.96 200.15 141.61
  Q 198.86 143.56 196.66 144.52
  C 192.57 146.30 185.96 147.52 183.15 143.32
  C 181.66 141.11 179.23 136.07 180.34 133.31
  C 181.84 129.58 183.82 125.98 187.55 124.61
  C 189.86 123.76 192.08 123.95 194.46 123.97
  C 196.45 123.98 200.75 125.67 201.66 127.57
  Z"
/>
<path fill="#fff" d="
  M 356.97 163.26
  Q 355.80 163.11 356.06 164.26
  Q 357.45 170.40 361.51 175.72
  C 365.91 181.50 374.74 178.88 379.83 175.36
  Q 383.31 172.96 386.58 170.28
  A 1.20 1.19 58.3 0 1 388.42 170.72
  L 388.68 171.30
  A 2.82 2.81 -32.4 0 1 387.94 174.59
  Q 381.57 180.03 373.07 183.37
  Q 371.36 184.05 369.32 184.19
  C 367.34 184.33 365.46 185.17 363.50 185.07
  Q 353.08 184.54 347.16 179.47
  Q 341.70 174.79 338.90 167.62
  C 337.50 164.07 338.05 160.56 337.93 156.91
  C 337.67 149.64 341.18 139.09 346.44 134.27
  C 348.87 132.04 351.81 129.44 354.63 127.98
  C 360.26 125.08 367.35 122.96 373.64 124.91
  C 378.59 126.44 382.97 127.50 385.37 132.67
  Q 387.52 137.32 387.13 142.63
  Q 386.78 147.45 383.20 152.04
  Q 374.57 163.12 359.72 164.01
  Q 359.13 164.04 358.60 163.78
  Q 357.77 163.36 356.97 163.26
  Z
  M 374.46 148.63
  Q 375.67 144.78 375.76 141.03
  Q 375.82 138.84 375.15 136.23
  C 373.99 131.74 370.13 130.58 366.46 133.40
  C 358.57 139.49 355.65 148.22 355.98 157.87
  Q 356.01 158.82 356.96 158.86
  Q 360.24 159.00 363.64 159.08
  C 368.38 159.19 373.27 152.39 374.46 148.63
  Z"
/>
<path fill="#fff" d="
  M 301.10 147.98
  Q 298.68 147.91 296.32 148.74
  Q 295.72 148.95 295.11 148.79
  C 291.79 147.89 289.15 148.10 286.18 145.94
  A 0.63 0.63 0.0 0 0 285.20 146.31
  L 283.73 152.47
  A 1.60 1.59 -10.8 0 1 283.08 153.42
  Q 281.47 154.54 279.80 154.01
  Q 279.16 153.81 279.07 153.15
  Q 278.75 150.94 279.07 150.01
  Q 281.97 141.42 285.84 133.22
  C 286.64 131.52 288.99 128.63 291.09 130.58
  Q 291.50 130.96 292.06 130.94
  Q 293.81 130.87 295.41 131.64
  Q 295.92 131.89 296.50 131.88
  Q 298.77 131.84 300.63 132.43
  Q 302.42 133.00 304.53 132.98
  C 311.05 132.92 316.90 130.67 322.68 127.73
  A 3.21 2.71 -20.5 0 1 327.13 129.32
  Q 327.49 131.16 325.86 132.49
  Q 324.61 133.51 323.58 134.81
  C 319.56 139.83 313.69 142.96 309.59 147.83
  Q 308.04 149.68 306.00 151.20
  C 301.47 154.59 296.18 159.63 293.28 164.51
  Q 292.90 165.14 293.63 165.07
  C 298.11 164.65 301.65 164.87 305.45 167.62
  Q 308.95 170.15 310.36 170.65
  C 313.06 171.60 319.11 170.90 321.35 167.98
  Q 322.42 166.59 323.04 164.88
  A 0.40 0.40 0.0 0 0 322.50 164.38
  C 319.72 165.67 315.64 165.25 314.40 162.03
  C 313.40 159.40 313.10 155.13 316.26 153.74
  C 318.59 152.72 321.14 152.25 323.55 153.36
  Q 328.86 155.81 329.79 161.05
  Q 330.65 165.91 329.65 170.68
  C 328.42 176.62 324.72 178.85 320.32 182.44
  Q 318.75 183.72 316.51 184.26
  C 311.00 185.61 303.89 185.70 299.61 182.01
  C 297.07 179.83 295.06 179.33 292.11 178.43
  C 288.56 177.36 284.64 180.19 282.94 183.05
  Q 282.23 184.24 280.84 184.27
  Q 279.16 184.30 279.05 182.72
  C 278.90 180.72 278.83 178.78 279.49 176.82
  Q 280.94 172.51 283.35 168.36
  Q 284.59 166.24 289.69 160.95
  Q 295.21 155.22 301.50 148.98
  Q 302.47 148.01 301.10 147.98
  Z"
/>
<path fill="#fff" d="
  M 400.99 137.52
  Q 400.82 134.91 399.31 137.05
  Q 397.08 140.24 394.54 138.21
  Q 394.09 137.84 394.31 137.31
  Q 395.91 133.36 399.78 131.57
  Q 402.90 130.12 406.32 129.91
  Q 409.47 129.71 411.62 131.32
  C 414.53 133.49 418.44 137.20 418.17 141.14
  A 0.94 0.94 0.0 0 0 418.42 141.85
  L 419.14 142.64
  Q 419.60 143.14 419.86 142.52
  Q 420.36 141.36 419.24 140.85
  A 0.15 0.15 0.0 0 1 419.34 140.57
  Q 420.55 140.91 421.13 140.28
  Q 421.49 139.90 421.96 139.60
  C 425.68 137.31 431.17 134.61 435.39 137.08
  Q 436.24 137.58 437.13 137.79
  Q 437.60 137.90 437.93 138.25
  C 440.18 140.65 442.79 144.55 441.65 148.04
  C 440.76 150.72 438.43 155.65 435.21 156.09
  C 432.09 156.52 428.58 156.40 427.09 153.28
  Q 425.48 149.91 426.67 147.18
  Q 427.87 144.45 425.36 143.04
  Q 424.82 142.73 424.33 143.11
  Q 423.35 143.87 422.96 145.08
  Q 422.80 145.56 422.44 145.92
  Q 419.72 148.64 419.22 151.01
  Q 417.26 160.24 415.53 169.51
  C 415.07 171.95 415.05 174.37 414.60 176.81
  Q 413.54 182.58 412.32 187.99
  Q 412.16 188.69 412.83 188.94
  Q 414.08 189.41 414.92 190.35
  A 2.00 2.00 0.0 0 1 413.06 193.64
  Q 407.18 192.54 401.84 191.65
  C 398.36 191.08 394.96 191.04 391.59 189.86
  Q 391.06 189.67 390.97 189.11
  Q 390.67 187.14 391.78 185.61
  Q 392.22 185.00 392.80 185.48
  Q 393.43 186.00 394.21 185.94
  A 0.65 0.64 87.2 0 0 394.80 185.28
  Q 394.78 183.46 395.25 181.70
  Q 395.69 180.03 395.90 178.22
  Q 397.37 165.43 399.42 153.99
  C 399.95 151.04 399.96 148.20 400.57 145.25
  Q 401.28 141.76 400.99 137.52
  Z"
/>
<path fill="#fff" d="
  M 249.17 157.14
  Q 244.23 158.94 238.44 157.59
  Q 234.71 156.72 230.80 157.03
  Q 230.21 157.08 230.08 157.66
  Q 229.42 160.55 228.78 163.00
  Q 228.31 164.84 226.40 165.88
  Q 225.94 166.13 225.47 165.88
  Q 223.47 164.82 224.02 162.19
  Q 225.92 153.10 228.14 145.82
  C 228.96 143.11 231.26 139.54 234.49 141.48
  Q 236.03 142.40 238.07 142.89
  C 242.72 143.99 246.76 144.55 251.26 142.77
  Q 257.79 140.19 263.75 137.61
  Q 265.26 136.96 266.97 136.82
  A 0.99 0.98 -6.6 0 1 268.02 137.65
  C 268.42 140.23 266.78 141.77 265.95 143.99
  C 263.62 150.18 259.42 153.73 255.44 158.58
  C 251.03 163.95 245.85 168.72 240.87 173.62
  Q 239.93 174.55 239.43 176.41
  Q 239.25 177.09 239.95 177.02
  C 240.97 176.93 241.94 176.95 242.96 177.16
  Q 247.88 178.17 251.86 179.97
  C 254.79 181.30 257.22 180.90 260.21 181.06
  C 262.70 181.19 264.33 179.25 265.76 177.54
  Q 266.27 176.95 267.03 176.88
  Q 267.61 176.83 267.88 176.32
  Q 268.03 176.04 267.96 175.76
  Q 267.74 174.89 267.11 175.52
  C 265.42 177.23 264.09 176.84 262.11 177.92
  Q 261.55 178.22 260.92 178.11
  C 257.57 177.50 255.99 174.43 256.55 171.25
  C 256.94 169.00 257.53 167.04 259.90 166.16
  Q 263.47 164.85 267.13 165.82
  C 270.73 166.79 272.22 170.66 273.11 173.94
  Q 273.78 176.40 273.46 178.77
  Q 271.98 189.67 261.62 193.58
  C 254.41 196.30 248.07 194.61 241.02 193.21
  C 237.33 192.47 233.91 192.39 231.93 196.12
  A 2.00 1.97 89.6 0 1 231.17 196.90
  L 229.56 197.82
  A 1.26 1.26 0.0 0 1 228.04 197.61
  C 226.57 196.11 225.72 194.04 226.36 191.93
  C 226.97 189.88 226.74 187.84 227.61 185.78
  C 230.48 178.96 235.52 172.99 240.18 167.35
  Q 243.25 163.64 246.82 161.46
  Q 248.95 160.16 249.63 157.56
  Q 249.80 156.91 249.17 157.14
  Z"
/>
<path fill="#fff" d="
  M 138.15 189.91
  C 137.59 195.19 138.95 200.16 139.00 205.33
  Q 139.09 216.20 138.96 227.30
  Q 138.96 228.03 139.69 228.02
  C 142.26 227.99 147.54 227.45 149.60 228.83
  A 0.73 0.72 40.8 0 1 149.69 229.97
  C 148.66 230.90 147.62 231.64 146.20 231.76
  Q 135.96 232.56 124.88 233.63
  C 124.29 233.69 123.96 233.45 123.35 233.54
  Q 117.75 234.30 111.62 233.93
  Q 109.52 233.80 108.95 231.78
  Q 108.81 231.31 108.96 230.84
  Q 109.49 229.15 111.26 229.09
  L 117.24 228.91
  A 0.77 0.77 0.0 0 0 117.98 228.13
  Q 117.86 219.46 117.72 209.79
  C 117.66 205.37 116.78 201.04 117.18 196.54
  Q 117.54 192.45 117.23 188.80
  Q 116.84 184.09 116.90 179.07
  Q 117.10 164.29 116.87 150.76
  C 116.84 148.77 115.92 147.15 115.94 145.24
  A 1.10 1.09 72.0 0 1 116.37 144.39
  Q 117.71 143.33 119.32 143.17
  Q 129.37 142.19 140.05 140.74
  C 147.12 139.78 154.60 139.87 161.67 140.16
  Q 163.44 140.23 167.97 142.19
  C 172.43 144.11 174.82 146.42 176.32 150.97
  Q 177.26 153.83 177.11 156.57
  C 176.90 160.61 177.70 165.08 176.16 168.81
  Q 173.50 175.24 170.03 178.22
  Q 166.14 181.57 162.08 183.36
  Q 158.37 184.99 152.94 186.11
  Q 145.86 187.58 138.74 189.24
  Q 138.21 189.36 138.15 189.91
  Z
  M 157.42 152.71
  C 156.33 150.31 153.43 149.05 151.17 148.04
  C 147.71 146.50 142.93 146.76 139.28 147.10
  Q 138.05 147.22 138.05 148.46
  L 138.03 181.72
  A 1.40 1.40 0.0 0 0 139.60 183.11
  Q 146.65 182.24 152.10 178.09
  C 156.22 174.96 157.59 170.00 159.00 165.14
  Q 159.90 162.03 159.35 159.05
  Q 158.69 155.53 157.42 152.71
  Z"
/>
<path fill="#fff" d="
  M 453.47 146.18
  Q 451.70 145.64 450.59 144.09
  Q 450.32 143.71 450.38 143.24
  Q 450.72 140.48 453.49 140.98
  Q 460.24 142.19 467.03 143.25
  Q 469.56 143.64 471.62 144.91
  A 2.42 2.42 0.0 0 1 472.72 147.43
  Q 471.34 154.44 468.77 161.51
  C 468.20 163.09 468.11 164.95 467.78 166.60
  Q 465.94 175.77 463.72 185.94
  Q 463.35 187.65 463.74 189.49
  Q 464.15 191.44 464.18 193.23
  Q 464.19 193.94 464.77 193.54
  Q 466.37 192.46 467.38 190.70
  Q 470.28 185.60 471.28 180.64
  Q 471.71 178.52 473.50 179.73
  Q 473.71 179.88 473.95 179.99
  A 2.32 2.30 -72.8 0 1 475.20 182.39
  Q 474.29 188.68 470.78 194.40
  C 468.67 197.85 465.45 198.67 462.07 200.12
  Q 459.58 201.19 457.30 200.89
  C 453.04 200.32 449.91 199.20 447.37 195.37
  C 443.62 189.74 444.68 183.61 446.00 177.24
  Q 449.22 161.68 453.13 147.66
  Q 453.27 147.17 453.63 146.81
  Q 454.08 146.37 453.47 146.18
  Z"
/>
<path fill="#fff" d="
  M 208.22 203.97
  Q 209.85 203.25 210.46 201.03
  Q 212.71 192.83 213.25 185.77
  Q 213.37 184.24 214.90 184.02
  Q 216.38 183.81 216.89 187.94
  Q 217.06 189.32 216.93 190.70
  Q 216.48 195.34 214.63 201.08
  Q 212.90 206.46 209.53 209.03
  C 205.81 211.86 199.18 213.60 194.85 210.95
  C 189.45 207.64 187.57 201.83 186.74 195.72
  Q 184.88 181.98 184.83 174.48
  Q 184.77 166.55 184.98 158.15
  Q 185.02 156.74 182.44 156.87
  Q 180.60 156.97 180.01 155.13
  Q 179.97 154.99 180.01 154.84
  Q 180.40 153.26 181.99 153.22
  C 186.30 153.11 190.65 153.09 194.97 152.16
  Q 197.69 151.58 200.52 151.63
  A 1.51 1.50 90.0 0 1 201.99 153.11
  C 202.14 160.92 203.03 168.39 203.00 176.10
  Q 202.96 187.17 205.24 198.58
  Q 205.72 200.98 207.45 203.73
  Q 207.73 204.18 208.22 203.97
  Z"
/>
<path fill="#fff" d="
  M 512.21 201.77
  L 512.13 202.13
  A 0.92 0.91 83.4 0 1 511.67 202.72
  Q 505.54 205.92 501.28 206.86
  C 491.95 208.93 481.60 201.05 481.77 191.20
  C 481.84 186.92 481.47 181.72 482.80 177.79
  Q 489.17 158.96 507.01 152.51
  Q 510.49 151.26 515.56 151.80
  C 521.05 152.39 525.03 156.30 526.99 160.90
  Q 527.77 162.71 528.47 160.87
  Q 530.07 156.65 535.00 155.37
  Q 535.51 155.23 535.98 155.47
  Q 538.26 156.64 540.42 158.17
  C 542.91 159.93 545.84 160.84 548.56 162.30
  A 1.22 1.21 -61.0 0 1 549.04 163.98
  Q 547.01 167.48 544.46 170.15
  C 541.76 172.98 539.10 177.06 537.40 180.59
  Q 534.81 185.98 532.68 190.85
  Q 531.49 193.58 531.03 196.76
  Q 530.55 200.02 530.14 203.09
  Q 529.59 207.23 531.74 211.21
  A 2.42 2.42 0.0 0 0 534.57 212.38
  Q 541.19 210.36 544.42 204.53
  Q 545.60 202.40 548.04 201.43
  Q 549.02 201.03 549.55 201.95
  Q 550.31 203.29 549.56 204.58
  C 546.70 209.49 542.92 215.43 537.49 216.90
  Q 535.21 217.52 532.70 218.21
  Q 530.44 218.83 528.30 218.44
  C 526.15 218.05 524.09 218.24 522.13 217.14
  Q 516.59 214.01 513.99 207.99
  A 1.80 1.76 39.3 0 1 513.87 206.92
  Q 514.37 204.19 512.88 201.66
  Q 512.42 200.89 512.21 201.77
  Z
  M 520.48 173.65
  C 522.02 170.11 524.51 165.43 521.85 161.91
  C 519.37 158.62 514.92 160.32 512.35 162.53
  Q 507.18 167.00 503.41 172.76
  Q 501.29 176.02 499.19 182.10
  C 497.45 187.18 495.82 192.54 498.44 197.50
  Q 499.70 199.89 502.42 200.62
  Q 502.98 200.78 503.50 200.50
  Q 508.87 197.66 512.27 195.04
  C 514.76 193.12 514.81 189.88 515.74 187.08
  C 517.23 182.59 518.58 177.99 520.48 173.65
  Z"
/>
<path fill="#fff" d="
  M 370.13 233.51
  C 372.64 234.50 377.70 237.29 377.08 240.67
  C 376.45 244.11 373.53 245.37 370.72 247.00
  C 366.30 249.56 360.99 249.46 355.94 249.00
  C 348.75 248.34 350.95 240.56 352.47 236.13
  Q 353.63 232.76 356.80 230.50
  Q 363.20 225.93 369.34 232.95
  Q 369.66 233.32 370.13 233.51
  Z"
/>
<path fill="#fff" d="
  M 421.94 323.14
  C 422.85 322.79 423.12 322.09 423.04 321.16
  Q 422.99 320.55 423.17 319.96
  Q 423.89 317.60 424.08 315.05
  C 424.35 311.39 426.53 306.45 430.79 306.02
  A 1.16 1.16 0.0 0 1 432.04 307.02
  Q 432.20 308.24 431.88 309.45
  Q 430.29 315.57 428.16 322.05
  A 2.11 2.10 28.7 0 0 428.84 324.35
  Q 432.09 326.98 434.16 330.37
  Q 441.11 341.74 442.04 356.10
  Q 442.57 364.35 440.14 371.03
  Q 436.99 379.67 432.24 385.35
  C 429.54 388.58 426.95 391.82 423.59 394.44
  Q 417.50 399.18 411.79 402.49
  Q 410.65 403.15 409.84 404.19
  C 408.31 406.16 405.70 404.19 404.75 402.61
  C 400.96 396.30 398.74 389.24 396.56 382.21
  C 394.57 375.77 393.94 368.24 393.00 361.25
  Q 392.51 357.56 394.46 349.32
  C 395.24 346.04 397.51 342.60 399.26 339.73
  Q 404.49 331.20 412.57 326.51
  C 415.60 324.74 418.68 324.39 421.94 323.14
  Z
  M 404.66 357.35
  Q 403.76 356.06 404.36 354.74
  C 406.69 349.61 411.18 345.89 416.70 344.17
  A 1.64 1.62 -85.6 0 0 417.70 343.30
  Q 418.28 342.03 418.60 340.75
  Q 419.77 336.04 421.05 330.91
  Q 421.51 329.05 419.59 329.07
  C 416.30 329.10 410.03 335.30 407.52 337.83
  Q 403.73 341.65 401.84 346.68
  C 399.16 353.77 398.46 360.76 399.49 368.06
  Q 399.98 371.52 400.12 374.89
  Q 400.14 375.46 400.45 375.95
  C 401.43 377.49 400.83 379.12 401.40 380.82
  Q 403.23 386.31 405.26 391.32
  Q 406.01 393.17 406.67 391.29
  Q 408.01 387.51 408.88 383.49
  C 409.33 381.37 410.18 379.58 410.90 377.56
  Q 411.19 376.74 410.52 376.29
  A 1.15 1.14 -50.0 0 0 409.11 376.42
  Q 406.81 378.62 403.82 379.14
  A 1.59 1.58 1.8 0 1 402.00 377.21
  C 402.67 374.37 408.96 370.96 411.34 369.88
  A 2.59 2.57 81.2 0 0 412.83 367.83
  Q 413.51 361.91 415.54 355.98
  C 416.15 354.21 415.69 352.57 416.63 350.98
  Q 418.16 348.42 415.43 349.62
  C 413.02 350.67 409.78 354.85 408.24 357.03
  Q 407.00 358.79 405.11 357.75
  Q 404.83 357.59 404.66 357.35
  Z
  M 432.38 364.27
  Q 431.32 365.18 430.40 364.86
  Q 427.92 364.01 427.37 361.77
  Q 426.95 360.06 426.79 357.77
  Q 426.46 353.04 422.75 350.23
  A 1.16 1.15 28.5 0 0 420.96 350.76
  C 419.90 353.74 419.97 356.62 419.01 359.57
  Q 418.07 362.42 417.82 365.32
  C 417.66 367.11 416.62 368.51 417.25 370.31
  Q 417.43 370.83 417.94 371.00
  Q 423.40 372.87 424.94 379.71
  Q 425.46 382.03 423.21 382.81
  L 422.63 383.01
  Q 421.01 383.57 420.44 381.95
  L 418.70 376.95
  A 1.17 1.17 0.0 0 0 416.95 376.36
  L 415.73 377.17
  A 0.99 0.97 81.8 0 0 415.32 377.73
  L 410.11 396.76
  Q 409.70 398.22 410.96 397.37
  C 414.96 394.68 417.93 391.52 421.34 388.12
  Q 424.07 385.41 426.35 382.03
  Q 430.23 376.27 433.04 371.32
  Q 435.31 367.34 435.90 360.98
  C 436.34 356.21 435.23 351.58 434.62 346.84
  C 433.94 341.56 430.37 335.49 427.07 330.50
  A 0.59 0.59 0.0 0 0 426.03 330.62
  Q 423.51 337.58 422.62 344.27
  Q 422.54 344.88 423.11 345.11
  C 426.55 346.52 430.55 349.79 431.31 353.77
  Q 432.20 358.44 432.99 362.54
  A 1.83 1.82 -25.7 0 1 432.38 364.27
  Z"
/>
<path fill="#fff" d="
  M 179.58 354.08
  C 180.11 354.61 180.78 355.03 181.56 354.96
  C 186.88 354.50 190.46 355.89 195.03 357.69
  Q 197.82 358.78 200.30 360.61
  C 205.78 364.66 210.48 369.57 213.40 375.62
  C 215.04 379.00 217.17 381.71 218.35 385.42
  Q 220.27 391.49 220.75 395.80
  C 221.20 399.82 221.65 404.44 221.18 408.46
  C 220.81 411.62 221.38 415.00 220.39 418.13
  Q 219.03 422.46 218.19 426.85
  C 217.66 429.65 216.60 431.88 215.97 434.52
  C 215.48 436.58 213.39 437.96 211.33 437.61
  Q 207.66 436.98 203.48 434.84
  C 194.93 430.45 188.08 423.75 180.68 417.99
  Q 177.32 415.38 175.10 411.17
  Q 170.34 402.11 165.96 392.48
  Q 164.82 389.97 164.74 387.15
  Q 164.57 380.64 165.42 376.63
  Q 167.67 366.01 174.77 357.33
  A 0.94 0.94 0.0 0 0 174.91 356.37
  Q 172.37 350.47 171.24 343.99
  C 170.88 341.90 170.72 339.97 172.07 338.16
  Q 173.22 336.63 173.97 334.94
  A 1.84 1.84 0.0 0 1 175.85 333.87
  Q 176.92 333.99 176.93 335.08
  C 176.97 338.75 177.14 342.40 177.91 345.90
  Q 178.73 349.59 179.17 353.24
  A 1.44 1.43 19.1 0 0 179.58 354.08
  Z
  M 211.59 403.65
  Q 211.63 403.83 211.56 404.00
  Q 211.34 404.50 211.80 404.79
  Q 213.24 405.72 213.69 407.78
  A 1.81 1.80 86.6 0 1 211.75 409.97
  C 209.63 409.76 206.44 406.94 204.75 405.55
  Q 202.96 404.07 201.09 403.88
  Q 199.37 403.71 200.56 404.97
  C 202.46 406.98 202.95 409.73 204.37 412.23
  Q 207.61 417.92 210.98 424.95
  Q 212.24 427.58 212.83 424.73
  Q 213.61 420.92 215.27 416.83
  C 216.43 413.96 215.57 411.28 216.40 408.47
  C 217.26 405.57 216.18 403.88 215.99 401.17
  Q 215.25 390.42 209.75 381.91
  C 208.03 379.25 206.80 376.43 204.86 373.91
  Q 201.26 369.24 198.77 367.03
  Q 192.59 361.55 183.02 360.34
  Q 181.59 360.15 181.88 361.57
  Q 182.78 365.84 184.70 369.53
  Q 184.96 370.03 185.00 370.59
  Q 185.03 371.18 185.32 371.68
  A 0.65 0.64 57.7 0 0 186.23 371.89
  C 189.40 369.84 193.50 371.88 196.66 372.96
  C 201.01 374.44 204.21 376.98 206.86 380.62
  A 1.17 1.16 56.6 0 1 206.52 382.30
  C 205.01 383.22 203.45 383.30 201.89 382.23
  Q 200.52 381.29 199.20 380.30
  Q 194.40 376.70 188.68 377.01
  A 0.70 0.70 0.0 0 0 188.08 378.00
  Q 190.96 384.29 193.49 390.65
  Q 194.94 394.30 197.44 398.72
  Q 198.07 399.85 199.17 399.40
  Q 199.52 399.26 199.90 399.31
  Q 205.56 400.05 209.92 403.58
  Q 210.21 403.81 210.56 403.90
  Q 210.97 403.99 211.20 403.59
  Q 211.47 403.12 211.59 403.65
  Z
  M 177.24 392.29
  Q 175.59 382.26 180.50 375.64
  A 1.72 1.69 -35.2 0 0 180.77 374.16
  L 177.98 364.70
  A 0.69 0.69 0.0 0 0 176.79 364.46
  C 172.67 369.45 170.99 376.92 170.90 383.28
  C 170.79 391.14 173.74 398.40 177.60 404.94
  C 179.64 408.41 182.77 410.86 184.95 414.30
  Q 185.80 415.64 185.87 414.06
  C 186.10 409.27 187.23 404.33 191.76 401.77
  A 2.04 2.03 63.2 0 0 192.61 399.16
  C 191.91 397.61 190.86 396.30 190.14 394.74
  Q 186.85 387.66 183.83 380.66
  Q 183.68 380.31 183.32 380.16
  A 0.54 0.53 18.2 0 0 182.60 380.52
  Q 180.91 386.76 180.97 392.25
  Q 180.97 393.01 180.21 393.02
  L 178.15 393.05
  Q 177.37 393.06 177.24 392.29
  Z
  M 189.75 417.69
  Q 189.07 417.74 189.38 418.35
  A 4.80 1.35 62.2 0 0 189.71 418.94
  Q 190.24 419.81 191.04 420.55
  Q 197.35 426.44 205.90 429.89
  Q 206.36 430.07 206.69 429.70
  Q 207.43 428.84 206.85 427.93
  Q 205.83 426.34 204.99 424.66
  Q 199.97 414.64 195.64 405.28
  A 0.78 0.78 0.0 0 0 194.45 405.00
  Q 192.46 406.56 191.62 408.69
  C 190.51 411.51 191.41 414.17 190.62 416.98
  A 0.99 0.98 -84.0 0 1 189.75 417.69
  Z"
/>
<path fill="#fff" d="
  M 105.09 345.67
  C 107.89 345.60 112.36 347.79 112.01 351.27
  Q 111.69 354.44 110.24 355.99
  Q 107.81 358.58 103.89 359.84
  C 98.03 361.72 96.22 357.67 93.30 354.02
  C 90.63 350.66 89.99 346.35 93.30 343.05
  C 95.72 340.63 102.89 342.34 104.46 345.30
  Q 104.66 345.68 105.09 345.67
  Z"
/>
<path fill="#fff" d="
  M 356.16 428.58
  Q 356.02 429.51 355.72 430.33
  C 354.45 433.76 354.19 437.03 353.06 440.40
  C 352.34 442.53 351.69 444.73 350.70 446.71
  Q 342.53 463.05 329.97 473.12
  Q 327.89 474.79 324.02 477.09
  Q 320.77 479.01 317.44 480.34
  C 310.75 483.01 304.53 483.37 297.53 482.92
  Q 289.57 482.41 282.73 478.35
  A 2.24 2.23 -42.1 0 0 280.63 478.25
  Q 277.69 479.63 274.91 481.06
  C 271.38 482.87 265.74 484.31 262.29 481.85
  Q 261.03 480.95 260.84 479.43
  Q 260.70 478.40 261.71 478.12
  Q 267.85 476.43 273.29 475.15
  C 275.78 474.57 277.90 473.46 280.31 472.81
  A 0.89 0.88 -6.4 0 0 280.96 472.00
  C 281.03 470.82 280.87 469.88 281.29 468.71
  Q 285.08 458.17 291.90 449.65
  Q 295.32 445.37 299.84 442.73
  Q 308.36 437.75 316.95 434.45
  Q 321.09 432.86 326.52 432.36
  Q 330.41 432.00 334.84 431.86
  C 338.67 431.73 342.29 430.65 346.03 429.89
  C 348.69 429.35 350.90 428.04 353.44 427.01
  Q 354.94 426.39 355.85 427.44
  Q 356.26 427.91 356.16 428.58
  Z
  M 326.88 443.32
  C 325.81 445.29 324.57 447.11 325.04 449.50
  Q 325.15 450.04 325.62 449.76
  Q 333.65 444.96 340.22 439.56
  C 341.07 438.86 342.09 438.60 342.79 437.70
  Q 343.28 437.08 342.48 437.05
  Q 338.55 436.90 334.55 437.58
  C 330.83 438.22 327.23 438.70 323.60 439.86
  C 320.81 440.74 317.91 440.84 315.17 441.79
  Q 306.59 444.75 299.81 450.82
  C 298.49 452.00 297.96 453.55 296.59 454.56
  Q 295.17 455.62 294.02 457.03
  Q 289.40 462.64 287.10 467.83
  Q 286.77 468.57 287.02 469.43
  A 0.77 0.76 -20.1 0 0 288.08 469.92
  L 297.47 465.61
  Q 297.89 465.42 297.93 464.95
  C 298.10 462.94 297.86 461.49 298.58 459.41
  C 299.32 457.28 302.25 448.98 305.83 451.32
  C 309.41 453.66 303.55 458.54 302.98 461.17
  Q 302.78 462.08 303.61 461.66
  L 319.30 453.87
  Q 319.96 453.54 319.98 452.80
  Q 320.02 451.00 319.98 449.01
  C 319.92 446.22 321.53 443.53 323.07 441.36
  Q 323.63 440.56 324.57 440.83
  Q 325.92 441.22 326.78 442.26
  A 0.95 0.94 -50.9 0 1 326.88 443.32
  Z
  M 347.60 440.77
  Q 348.03 439.91 347.23 440.45
  Q 339.93 445.43 332.59 451.09
  Q 330.76 452.50 329.30 454.28
  A 0.44 0.44 0.0 0 0 329.62 455.00
  Q 332.21 455.16 335.03 454.28
  Q 337.58 453.48 339.50 454.93
  A 0.81 0.81 0.0 0 0 340.71 454.64
  L 347.60 440.77
  Z
  M 323.96 468.05
  Q 323.03 469.96 321.37 470.67
  Q 316.62 472.69 311.03 473.12
  Q 305.83 473.52 300.90 469.62
  Q 300.50 469.30 300.04 469.52
  L 290.37 474.29
  A 0.46 0.45 43.2 0 0 290.40 475.12
  C 300.35 479.37 309.83 479.13 319.38 473.84
  Q 324.83 470.83 329.74 467.27
  C 332.67 465.14 334.19 462.05 336.87 459.55
  A 0.27 0.27 0.0 0 0 336.72 459.09
  Q 333.82 458.72 331.10 459.82
  Q 330.54 460.04 329.97 459.84
  L 323.79 457.67
  Q 323.33 457.51 322.89 457.70
  Q 313.62 461.64 305.30 466.27
  A 0.42 0.42 0.0 0 0 305.20 466.93
  C 305.76 467.52 306.24 467.90 307.09 467.96
  Q 311.65 468.30 313.26 467.89
  Q 318.65 466.52 320.80 466.11
  Q 322.59 465.77 323.81 467.07
  Q 324.22 467.51 323.96 468.05
  Z"
/>
<path fill="#fff" d="
  M 122.82 444.36
  Q 126.29 443.00 129.30 443.05
  C 132.86 443.12 133.72 447.20 132.84 450.02
  Q 131.37 454.71 128.00 458.08
  A 2.59 2.58 -56.1 0 1 125.17 458.64
  Q 118.72 455.96 113.31 449.81
  A 1.10 1.10 0.0 0 1 113.13 448.66
  Q 113.80 447.08 114.53 445.58
  C 115.99 442.60 119.55 443.64 122.07 444.39
  Q 122.45 444.51 122.82 444.36
  Z"
/>
<path fill="#fff" d="
  M 486.77 508.97
  C 489.74 509.87 490.91 513.44 491.37 516.31
  Q 491.45 516.80 491.80 517.17
  L 495.31 520.83
  A 2.57 2.55 35.0 0 1 495.81 523.61
  Q 494.16 527.43 489.40 528.60
  Q 484.44 529.82 479.63 531.47
  A 1.10 1.10 0.0 0 1 478.17 530.45
  Q 478.08 525.39 477.27 520.52
  Q 477.03 519.02 477.48 517.58
  C 477.96 516.07 477.60 514.54 478.53 513.11
  C 480.31 510.35 483.35 507.93 486.77 508.97
  Z"
/>
<path fill="#fff" d="
  M 312.37 541.02
  Q 311.43 536.86 312.30 533.56
  Q 312.64 532.27 313.81 531.08
  C 316.89 527.96 321.66 527.45 326.24 528.25
  C 331.07 529.10 333.12 531.96 333.11 536.55
  C 333.11 540.38 333.39 543.89 329.95 546.54
  Q 326.38 549.29 322.18 549.12
  C 317.52 548.94 313.33 545.30 312.37 541.02
  Z"
/>
<path fill="#fff" d="
  M 276.79 530.51
  Q 276.99 530.43 277.15 530.26
  A 0.85 0.85 0.0 0 1 277.76 530.00
  L 287.76 530.00
  Q 288.37 530.00 288.82 530.41
  Q 289.44 530.97 290.23 530.98
  Q 291.01 530.98 291.01 531.76
  Q 290.99 538.34 291.01 544.51
  C 291.02 545.81 290.00 546.47 290.00 547.74
  Q 289.98 570.64 289.91 593.00
  Q 289.90 595.36 291.83 597.48
  A 1.47 1.47 0.0 0 0 293.86 597.62
  Q 296.30 595.61 296.99 592.28
  Q 297.42 590.22 299.29 591.17
  L 299.68 591.37
  Q 301.61 592.36 300.92 594.42
  C 299.79 597.81 298.72 601.82 296.28 604.38
  Q 293.23 607.57 287.79 608.74
  Q 277.94 610.86 273.71 602.42
  C 272.09 599.19 271.03 594.64 271.02 590.92
  Q 270.96 573.50 271.02 552.93
  C 271.03 549.56 271.89 546.58 271.98 543.22
  Q 272.04 541.31 272.48 539.39
  Q 273.22 536.17 272.97 532.57
  Q 272.93 531.98 273.35 531.55
  Q 274.78 530.08 276.17 530.53
  Q 276.48 530.63 276.79 530.51
  Z"
/>
<path fill="#fff" d="
  M 302.85 539.51
  Q 303.57 539.01 304.50 538.94
  Q 305.08 538.90 305.56 539.21
  C 307.16 540.23 309.77 542.63 308.70 544.77
  Q 308.23 545.71 307.11 546.05
  C 305.95 546.39 305.17 547.02 303.90 547.00
  C 301.46 546.96 296.25 547.71 294.34 545.96
  C 292.94 544.68 290.76 542.52 292.72 540.66
  Q 293.62 539.82 294.91 539.91
  Q 297.82 540.12 300.27 539.90
  Q 300.83 539.84 301.21 539.42
  Q 301.53 539.05 301.88 539.41
  Q 302.32 539.86 302.85 539.51
  Z"
/>
<ellipse fill="#fff" cx="0.00" cy="0.00" transform="translate(185.65,552.65) rotate(111.8)" rx="11.61" ry="11.09"/>
<path fill="#fff" d="
  M 153.80 560.11
  Q 154.04 558.48 155.15 556.57
  Q 155.45 556.05 156.05 556.03
  L 158.68 555.92
  A 1.26 1.26 0.0 0 1 160.00 557.18
  L 159.99 579.68
  Q 159.99 580.20 159.63 580.57
  Q 158.87 581.33 157.76 581.66
  Q 155.53 582.32 155.07 580.05
  C 154.23 575.90 153.50 571.08 151.09 567.62
  Q 146.56 561.08 142.30 558.44
  Q 139.67 556.80 135.22 556.90
  Q 132.72 556.95 130.82 558.62
  Q 126.07 562.80 124.34 566.72
  Q 119.39 577.92 117.29 592.19
  C 116.75 595.85 117.28 599.49 116.54 603.06
  Q 115.95 605.91 116.25 608.85
  Q 116.70 613.36 117.73 617.88
  C 119.02 623.53 121.52 628.12 126.31 631.51
  C 130.83 634.70 136.61 632.74 140.03 628.75
  C 142.01 626.44 144.82 622.38 144.97 619.09
  C 145.10 616.07 146.36 613.77 145.97 610.57
  Q 145.92 610.14 145.48 610.11
  Q 137.86 609.53 132.09 610.75
  Q 129.79 611.24 128.85 609.08
  Q 128.14 607.47 127.95 605.99
  Q 127.68 603.77 129.85 603.21
  Q 131.99 602.67 134.01 602.71
  Q 137.47 602.77 141.10 602.41
  Q 143.74 602.15 146.44 601.98
  Q 148.29 601.86 150.00 601.48
  C 154.28 600.52 159.41 600.99 163.72 601.00
  A 2.29 2.28 -89.9 0 1 165.99 603.29
  Q 166.00 615.49 166.01 627.57
  C 166.01 629.65 165.29 631.40 165.18 633.43
  Q 165.09 635.03 163.48 635.01
  L 160.97 634.96
  Q 158.97 634.93 158.97 632.93
  L 158.95 619.38
  Q 158.95 619.13 158.72 619.06
  Q 158.59 619.01 158.45 619.07
  Q 158.35 619.10 158.31 619.20
  Q 152.22 634.41 136.82 638.64
  Q 131.26 640.17 124.10 640.06
  C 120.74 640.00 117.86 638.89 114.72 638.00
  Q 108.32 636.17 102.84 632.19
  C 96.18 627.35 93.13 618.99 90.72 611.11
  Q 89.83 608.18 89.92 605.21
  C 90.03 601.35 89.64 597.21 90.46 593.42
  C 90.95 591.14 91.42 588.81 91.76 586.49
  Q 92.40 582.00 94.38 577.88
  C 95.02 576.56 94.89 575.28 95.67 573.98
  C 96.87 572.00 97.30 569.95 98.56 567.95
  Q 104.79 558.04 110.67 554.27
  Q 119.06 548.89 130.31 548.17
  Q 132.64 548.02 139.99 550.24
  Q 148.42 552.78 152.93 560.29
  Q 153.61 561.43 153.80 560.11
  Z"
/>
<path fill="#fff" d="
  M 366.16 588.83
  L 365.29 591.99
  Q 365.14 592.54 365.33 593.08
  Q 365.94 594.77 365.99 596.59
  C 366.23 604.51 374.45 614.84 382.80 607.65
  Q 389.15 602.19 391.43 595.52
  Q 391.89 594.16 393.23 593.96
  Q 393.85 593.86 393.84 594.49
  Q 393.82 595.78 394.19 597.07
  C 394.73 598.99 394.18 601.49 393.11 603.18
  Q 384.85 616.32 368.38 614.90
  C 363.87 614.51 358.43 611.77 355.06 608.71
  Q 351.60 605.56 349.54 602.82
  C 346.26 598.44 346.92 590.84 346.87 585.29
  Q 346.84 581.44 348.05 577.85
  Q 349.40 573.84 351.17 570.64
  C 352.00 569.15 353.15 568.14 353.84 566.51
  Q 354.86 564.11 356.84 562.56
  C 361.60 558.85 364.53 554.68 371.32 554.08
  C 375.26 553.74 379.70 553.42 383.17 555.63
  Q 389.58 559.72 391.77 564.79
  Q 394.61 571.36 391.82 577.45
  Q 389.60 582.30 383.15 585.04
  C 377.60 587.41 372.73 588.01 366.99 588.18
  Q 366.33 588.20 366.16 588.83
  Z
  M 366.10 582.52
  Q 365.79 583.90 367.19 583.99
  C 370.33 584.21 373.58 584.27 376.16 582.18
  Q 380.95 578.31 381.80 573.14
  Q 382.80 567.09 380.62 561.44
  C 379.87 559.51 377.77 559.57 376.57 560.99
  Q 368.98 569.94 366.10 582.52
  Z"
/>
<path fill="#fff" d="
  M 426.50 569.94
  Q 429.28 570.43 431.93 571.08
  Q 434.25 571.66 434.06 574.63
  C 433.87 577.49 430.91 577.35 429.06 576.57
  Q 427.08 575.74 424.76 576.03
  A 0.73 0.72 86.8 0 0 424.13 576.74
  C 424.08 579.88 422.15 582.48 421.41 585.55
  Q 418.44 597.88 417.17 606.07
  Q 416.65 609.43 417.16 613.33
  A 1.73 1.73 0.0 0 0 420.01 614.41
  Q 422.94 611.85 424.98 608.62
  Q 426.50 606.23 429.19 605.94
  A 0.66 0.65 -7.5 0 1 429.90 606.48
  Q 430.44 610.01 428.82 612.30
  Q 423.96 619.18 416.20 621.72
  C 413.19 622.71 410.53 621.18 407.51 620.93
  C 405.78 620.79 403.58 618.40 402.44 617.13
  C 399.71 614.10 399.61 609.08 400.10 604.99
  Q 400.51 601.46 401.15 597.99
  Q 402.76 589.22 405.51 580.76
  C 406.18 578.69 405.80 576.76 406.97 574.76
  A 1.12 1.11 24.7 0 0 406.37 573.15
  Q 402.45 571.80 399.24 572.02
  Q 397.69 572.13 397.89 570.59
  L 398.12 568.79
  Q 398.36 566.96 400.21 566.98
  L 404.90 567.03
  Q 405.46 567.04 405.89 567.39
  Q 406.87 568.20 408.08 568.06
  Q 408.65 568.00 408.87 567.47
  Q 410.76 563.11 412.48 558.72
  Q 412.77 557.99 412.99 557.24
  C 413.46 555.65 415.37 553.35 417.30 554.23
  Q 418.16 554.62 419.07 554.77
  Q 424.22 555.57 429.55 556.25
  Q 430.12 556.32 430.07 556.89
  Q 429.60 561.70 427.50 566.15
  C 426.96 567.30 427.13 568.56 426.33 569.44
  Q 425.95 569.84 426.50 569.94
  Z"
/>
<path fill="#fff" d="
  M 310.30 560.99
  L 306.49 561.00
  Q 304.47 561.01 304.12 559.02
  Q 303.99 558.32 303.89 557.74
  Q 303.55 555.89 305.43 555.94
  C 310.84 556.06 316.30 556.25 321.76 555.40
  Q 326.30 554.69 331.83 554.83
  A 1.22 1.22 0.0 0 1 333.02 556.02
  Q 333.15 562.77 332.91 569.30
  Q 332.86 570.68 332.51 572.34
  C 331.98 574.92 332.11 577.48 331.67 580.11
  Q 331.27 582.50 331.18 584.75
  Q 330.82 593.60 331.06 603.10
  A 0.92 0.91 -3.2 0 0 332.06 603.99
  Q 333.09 603.90 333.58 602.84
  Q 334.30 601.26 335.10 599.80
  A 2.64 2.64 0.0 0 1 339.36 599.31
  Q 340.88 600.98 338.33 604.15
  Q 333.47 610.21 324.67 611.04
  Q 314.78 611.98 311.57 603.34
  C 310.05 599.27 311.15 594.71 310.11 590.42
  C 309.53 588.00 310.65 585.94 310.74 583.60
  Q 311.18 572.38 310.97 561.65
  Q 310.95 560.99 310.30 560.99
  Z"
/>
<path fill="#fff" d="
  M 238.39 605.19
  Q 235.36 608.07 231.71 610.51
  C 229.74 611.84 227.51 612.85 225.09 613.19
  C 222.95 613.48 221.17 614.19 218.94 613.95
  Q 211.70 613.15 208.40 607.24
  Q 206.86 604.47 206.82 600.23
  Q 206.74 592.34 207.32 587.00
  Q 207.79 582.78 207.95 579.46
  Q 208.05 577.41 208.52 575.59
  Q 209.11 573.26 208.95 570.87
  Q 208.92 570.37 208.48 570.12
  Q 207.76 569.71 206.87 569.96
  Q 205.38 570.37 204.92 568.89
  Q 204.84 568.65 204.82 568.39
  Q 204.74 567.36 205.73 567.08
  Q 209.05 566.16 212.22 566.05
  C 217.69 565.86 222.11 565.04 227.02 564.76
  A 0.92 0.92 0.0 0 1 227.99 565.61
  C 228.19 568.49 227.41 571.26 227.11 574.18
  Q 226.37 581.46 225.43 589.09
  Q 224.49 596.71 225.21 601.95
  Q 225.64 605.06 228.16 605.83
  C 230.96 606.68 234.47 603.51 235.99 601.42
  Q 237.05 599.96 236.94 597.72
  Q 236.67 592.09 237.32 588.19
  C 237.83 585.13 237.94 582.14 238.49 579.14
  C 239.01 576.34 238.93 573.48 239.33 570.62
  Q 239.97 566.08 240.09 561.75
  Q 240.22 557.40 244.50 557.17
  Q 250.85 556.82 258.17 556.96
  Q 259.14 556.98 259.13 557.95
  C 259.11 559.73 259.10 561.58 258.78 563.36
  Q 256.37 576.68 254.29 590.90
  C 253.86 593.90 253.96 596.92 254.06 599.95
  A 1.07 1.07 0.0 0 0 254.84 600.94
  Q 256.47 601.39 257.36 600.04
  Q 258.67 598.06 259.82 594.29
  Q 260.40 592.39 262.30 592.98
  Q 262.59 593.07 262.83 593.27
  Q 264.14 594.31 263.80 595.95
  Q 261.07 609.27 247.46 609.15
  C 243.88 609.11 241.85 607.63 239.55 605.22
  Q 238.99 604.62 238.39 605.19
  Z"
/>
<path fill="#fff" d="
  M 443.39 579.98
  Q 440.74 580.39 438.44 578.77
  Q 438.04 578.49 437.98 577.99
  C 437.72 575.84 437.62 573.04 440.63 573.02
  Q 443.47 572.99 446.31 573.00
  Q 447.01 573.00 447.00 572.30
  L 447.00 571.27
  Q 447.00 570.78 447.23 570.35
  Q 449.16 566.81 450.40 563.40
  Q 451.43 560.58 453.99 561.50
  C 456.10 562.26 458.08 561.68 460.18 562.53
  Q 460.93 562.83 461.73 562.82
  C 463.46 562.79 465.70 563.71 467.19 564.47
  A 1.45 1.45 0.0 0 1 467.81 566.47
  Q 465.71 570.28 464.07 575.05
  Q 463.88 575.61 464.45 575.76
  L 471.43 577.55
  Q 473.35 578.05 473.14 580.02
  Q 473.00 581.21 472.74 582.31
  Q 472.25 584.38 470.25 583.66
  C 468.21 582.93 466.16 583.09 464.15 582.23
  Q 463.04 581.76 461.82 582.09
  Q 461.32 582.23 461.17 582.73
  Q 458.41 592.36 455.48 601.38
  C 454.90 603.16 455.13 605.08 454.55 606.92
  Q 452.41 613.66 451.17 619.63
  Q 450.73 621.74 451.06 623.89
  A 1.41 1.40 85.5 0 0 452.46 625.09
  C 454.12 625.07 456.19 624.29 457.11 622.78
  Q 457.73 621.75 458.63 620.95
  Q 459.22 620.41 459.54 621.15
  Q 461.10 624.91 458.66 627.03
  C 455.39 629.88 450.71 628.86 446.83 629.04
  C 442.27 629.25 437.87 626.99 435.99 622.84
  Q 434.35 619.25 435.05 614.46
  Q 435.69 610.08 436.44 605.92
  Q 437.21 601.71 438.50 597.63
  Q 440.24 592.11 441.81 586.49
  Q 442.14 585.30 441.99 584.03
  A 0.89 0.86 -21.8 0 1 442.36 583.20
  Q 443.17 582.63 443.02 581.64
  A 0.52 0.51 -16.5 0 1 443.33 581.08
  Q 443.67 580.94 443.85 580.64
  Q 444.31 579.84 443.39 579.98
  Z"
/>
<path fill="#fff" d="
  M 192.95 617.62
  Q 194.94 615.60 195.90 613.05
  Q 196.48 611.53 198.00 612.09
  L 198.65 612.33
  Q 200.32 612.94 199.75 614.62
  C 197.30 621.87 191.45 627.92 183.32 626.76
  Q 175.68 625.68 171.91 618.98
  Q 170.95 617.26 170.88 615.34
  C 170.81 613.59 170.01 612.36 170.01 610.59
  Q 170.01 596.97 170.00 583.75
  Q 170.00 583.18 170.52 582.97
  Q 170.67 582.90 170.77 582.77
  Q 171.05 582.40 170.67 582.14
  Q 170.20 581.82 169.89 581.36
  A 0.93 0.92 68.5 0 0 168.98 580.96
  Q 166.94 581.24 165.13 580.57
  A 1.59 1.58 -53.7 0 1 164.71 577.83
  C 166.45 576.48 168.26 576.07 170.62 576.05
  Q 176.57 575.99 182.15 575.97
  C 186.07 575.96 188.47 574.08 192.48 576.04
  A 0.97 0.96 12.6 0 1 193.02 576.89
  C 193.03 578.70 192.32 580.27 192.22 582.07
  Q 191.91 588.05 192.02 593.80
  Q 192.06 596.01 191.66 598.22
  C 191.29 600.22 192.12 602.14 192.05 604.24
  Q 191.83 611.16 192.20 617.33
  Q 192.26 618.32 192.95 617.62
  Z"
/>
<path fill="#fff" d="
  M 512.33 593.31
  Q 512.58 594.39 513.08 593.41
  Q 514.46 590.72 516.71 588.66
  A 1.73 1.73 0.0 0 1 518.48 588.32
  Q 524.54 590.61 530.35 593.80
  A 1.58 1.57 -64.3 0 1 531.04 595.79
  C 529.08 600.49 525.34 605.17 522.17 609.32
  Q 519.59 612.70 517.38 618.02
  C 515.27 623.11 512.63 628.22 512.01 633.92
  Q 511.64 637.25 514.42 638.57
  A 1.42 1.39 50.3 0 0 515.39 638.67
  Q 523.29 636.65 529.93 631.67
  A 2.53 2.52 27.0 0 1 531.51 631.16
  Q 533.09 631.18 533.63 632.00
  Q 534.83 633.83 533.24 635.34
  Q 530.15 638.25 527.00 640.51
  Q 515.64 648.68 501.81 644.70
  C 500.25 644.25 499.16 643.82 498.20 642.44
  C 496.30 639.71 494.35 637.54 495.02 633.93
  Q 495.16 633.19 494.43 633.38
  Q 490.10 634.51 485.25 635.52
  C 481.09 636.38 478.05 635.65 474.29 634.53
  C 469.56 633.12 468.12 630.63 466.16 626.75
  C 464.23 622.92 464.61 617.25 465.38 613.17
  Q 465.84 610.69 467.31 607.54
  Q 468.59 604.79 469.92 602.24
  Q 475.40 591.73 485.01 586.11
  C 487.56 584.62 491.16 583.20 494.08 582.88
  C 498.13 582.44 502.77 582.81 506.04 585.48
  C 508.75 587.68 511.50 589.72 512.33 593.31
  Z
  M 483.85 611.27
  Q 480.69 617.34 482.55 624.67
  C 483.39 627.99 486.66 631.04 490.26 629.75
  C 492.78 628.84 495.59 629.15 496.89 626.11
  Q 498.09 623.29 499.05 620.27
  Q 500.60 615.34 502.91 610.03
  C 504.31 606.81 507.23 603.84 507.88 600.36
  C 508.78 595.55 503.54 591.24 499.10 593.67
  Q 495.91 595.42 493.35 598.30
  Q 486.68 605.81 483.85 611.27
  Z"
/>
<path fill="#fff" d="
  M 329.53 639.88
  C 331.58 639.96 333.27 640.21 334.51 642.14
  C 337.19 646.31 333.78 650.23 330.15 652.01
  Q 325.99 654.06 321.25 652.08
  C 317.87 650.67 315.20 645.50 314.10 641.99
  Q 313.34 639.56 314.45 637.21
  Q 315.27 635.47 317.69 634.55
  C 322.36 632.77 324.98 636.59 328.01 639.27
  Q 328.66 639.84 329.53 639.88
  Z"
/>
</svg>
